<svg width="36" height="36" viewBox="0 0 36 36" fill="none" xmlns="http://www.w3.org/2000/svg">
<g id="account-child">
<path id="Vector" d="M18 3C19.1935 3 20.3381 3.47411 21.182 4.31802C22.0259 5.16193 22.5 6.30653 22.5 7.5C22.5 8.69347 22.0259 9.83807 21.182 10.682C20.3381 11.5259 19.1935 12 18 12C16.8065 12 15.6619 11.5259 14.818 10.682C13.9741 9.83807 13.5 8.69347 13.5 7.5C13.5 6.30653 13.9741 5.16193 14.818 4.31802C15.6619 3.47411 16.8065 3 18 3ZM18 13.5C20.445 13.5 22.68 14.025 24.75 15.075C26.76 16.14 27.75 17.415 27.75 18.915V27.57C27.75 29.25 26.46 30.66 23.835 31.785V28.5C23.835 27.075 22.545 26.07 19.965 25.455C19.125 25.26 18.465 25.17 18 25.17C16.695 25.17 15.45 25.425 14.31 25.95C13.155 26.46 12.465 27.12 12.24 27.915C14.25 28.71 16.17 29.115 18 29.115L19.5 28.965V32.91L18 33C15.945 33 13.995 32.58 12.165 31.785C9.54 30.66 8.25 29.25 8.25 27.57V18.915C8.25 17.415 9.24 16.14 11.25 15.075C13.32 14.025 15.57 13.5 18 13.5ZM18 16.5C17.2044 16.5 16.4413 16.8161 15.8787 17.3787C15.3161 17.9413 15 18.7044 15 19.5C15 20.2956 15.3161 21.0587 15.8787 21.6213C16.4413 22.1839 17.2044 22.5 18 22.5C18.7956 22.5 19.5587 22.1839 20.1213 21.6213C20.6839 21.0587 21 20.2956 21 19.5C21 18.7044 20.6839 17.9413 20.1213 17.3787C19.5587 16.8161 18.7956 16.5 18 16.5Z" fill="#163300"/>
</g>
</svg>
