<svg width="36" height="36" viewBox="0 0 36 36" fill="none" xmlns="http://www.w3.org/2000/svg">
<g id="chess-queen">
<path id="Vector" d="M27 4.5C27.7956 4.5 28.5587 4.81607 29.1213 5.37868C29.6839 5.94129 30 6.70435 30 7.5C30 8.715 29.25 9.75 28.245 10.23L25.5 19.725V27H10.5V19.725L7.755 10.23C6.75 9.75 6 8.715 6 7.5C6 6.70435 6.31607 5.94129 6.87868 5.37868C7.44129 4.81607 8.20435 4.5 9 4.5C9.79565 4.5 10.5587 4.81607 11.1213 5.37868C11.6839 5.94129 12 6.70435 12 7.5C12 8.25 11.73 8.925 11.25 9.45L15.45 14.025L16.245 8.43C15.495 7.89 15 7.005 15 6C15 5.20435 15.3161 4.44129 15.8787 3.87868C16.4413 3.31607 17.2044 3 18 3C18.7956 3 19.5587 3.31607 20.1213 3.87868C20.6839 4.44129 21 5.20435 21 6C21 7.005 20.505 7.89 19.755 8.43L20.55 14.025L24.705 9.435C24.27 8.91 24 8.25 24 7.5C24 6.70435 24.3161 5.94129 24.8787 5.37868C25.4413 4.81607 26.2044 4.5 27 4.5ZM7.5 30H28.5V33H7.5V30Z" fill="#163300"/>
</g>
</svg>
