<svg width="30" height="30" viewBox="0 0 30 30" fill="none" xmlns="http://www.w3.org/2000/svg">
<g id="file-replace-outline">
<path id="Vector" d="M17.2 3.99985L14.8 1.59985H5.20002C4.5635 1.59985 3.95305 1.85271 3.50296 2.3028C3.05287 2.75288 2.80002 3.36333 2.80002 3.99985V18.3999C2.80002 19.0364 3.05287 19.6468 3.50296 20.0969C3.95305 20.547 4.5635 20.7999 5.20002 20.7999H13.6V23.1999L18.4 19.5999L13.6 15.9999V18.3999H5.20002V3.99985H17.2ZM25.6 12.3999V25.5999C25.6 26.2364 25.3472 26.8468 24.8971 27.2969C24.447 27.747 23.8365 27.9999 23.2 27.9999H10C9.3635 27.9999 8.75305 27.747 8.30296 27.2969C7.85287 26.8468 7.60002 26.2364 7.60002 25.5999V23.1999H10V25.5999H23.2V14.7999H17.2V8.79985H10V15.9999H7.60002V8.79985C7.60002 8.16333 7.85287 7.55288 8.30296 7.1028C8.75305 6.65271 9.3635 6.39985 10 6.39985H19.6L25.6 12.3999Z" fill="#163300"/>
</g>
</svg>
