<svg width="64" height="65" viewBox="0 0 64 65" fill="none" xmlns="http://www.w3.org/2000/svg">
<g id="lock">
<path id="Vector" d="M32 46.133C33.4145 46.133 34.771 45.5711 35.7712 44.5709C36.7714 43.5707 37.3333 42.2141 37.3333 40.7996C37.3333 37.8396 34.9333 35.4663 32 35.4663C30.5855 35.4663 29.2289 36.0282 28.2288 37.0284C27.2286 38.0286 26.6667 39.3852 26.6667 40.7996C26.6667 42.2141 27.2286 43.5707 28.2288 44.5709C29.2289 45.5711 30.5855 46.133 32 46.133ZM48 22.133C49.4145 22.133 50.771 22.6949 51.7712 23.6951C52.7714 24.6953 53.3333 26.0518 53.3333 27.4663V54.133C53.3333 55.5475 52.7714 56.904 51.7712 57.9042C50.771 58.9044 49.4145 59.4663 48 59.4663H16C14.5855 59.4663 13.2289 58.9044 12.2288 57.9042C11.2286 56.904 10.6667 55.5475 10.6667 54.133V27.4663C10.6667 24.5063 13.0667 22.133 16 22.133H18.6667V16.7996C18.6667 13.2634 20.0714 9.87204 22.5719 7.37155C25.0724 4.87107 28.4638 3.46631 32 3.46631C33.7509 3.46631 35.4848 3.81119 37.1024 4.48125C38.7201 5.15131 40.19 6.13344 41.4281 7.37155C42.6662 8.60967 43.6483 10.0795 44.3184 11.6972C44.9884 13.3149 45.3333 15.0487 45.3333 16.7996V22.133H48ZM32 8.79964C29.8783 8.79964 27.8434 9.6425 26.3431 11.1428C24.8428 12.6431 24 14.6779 24 16.7996V22.133H40V16.7996C40 14.6779 39.1571 12.6431 37.6568 11.1428C36.1566 9.6425 34.1217 8.79964 32 8.79964Z" fill="#311602"/>
</g>
</svg>
