<svg width="36" height="36" viewBox="0 0 36 36" fill="none" xmlns="http://www.w3.org/2000/svg">
<g id="rhombus-split">
<path id="Vector" d="M18 3C17.25 3 16.5 3.285 15.885 3.885L10.935 8.82L18 15.87L25.065 8.82L20.115 3.885C19.5 3.285 18.75 3 18 3ZM8.82 10.935L3.885 15.885C2.7 17.055 2.7 18.945 3.885 20.115L8.82 25.065L15.87 18L8.82 10.935ZM27.18 10.935L20.13 18L27.18 25.065L32.115 20.115C33.3 18.945 33.3 17.055 32.115 15.885L27.18 10.935ZM18 20.13L10.935 27.18L15.885 32.115C17.055 33.3 18.945 33.3 20.115 32.115L25.065 27.18L18 20.13Z" fill="#163300"/>
</g>
</svg>
