<svg width="23" height="22" viewBox="0 0 23 22" fill="none" xmlns="http://www.w3.org/2000/svg">
<g id="shield-sun">
<path id="Vector" d="M11.6 1.30005L3.5 4.90005V10.3C3.5 15.295 6.956 19.966 11.6 21.1C16.244 19.966 19.7 15.295 19.7 10.3V4.90005L11.6 1.30005ZM11.6 8.40105C13.04 8.40105 14.201 9.56205 14.201 11.002C14.201 12.442 13.04 13.603 11.6 13.603C10.16 13.603 8.999 12.433 8.999 11.002C8.999 9.57105 10.169 8.40105 11.6 8.40105ZM11.6 5.80005L12.842 7.60005C12.464 7.43805 12.05 7.35705 11.6 7.35705C11.15 7.35705 10.745 7.43805 10.358 7.60005L11.6 5.80005ZM7.1 8.40105L9.26 8.22105C8.954 8.50005 8.666 8.80605 8.45 9.18405C8.225 9.56205 8.09 9.95805 8 10.372L7.1 8.40105ZM7.1 13.603L8.027 11.65C8.099 12.037 8.243 12.442 8.45 12.82C8.675 13.207 8.954 13.531 9.26 13.792L7.1 13.603ZM16.1 8.40105L15.2 10.372C15.11 9.95805 14.966 9.56205 14.75 9.18405C14.534 8.80605 14.255 8.50005 13.94 8.21205L16.1 8.40105ZM16.1 13.603L13.94 13.783C14.246 13.522 14.525 13.198 14.75 12.82C14.966 12.442 15.101 12.037 15.173 11.65L16.1 13.603ZM11.6 16.195L10.349 14.413C10.736 14.548 11.15 14.638 11.6 14.638C12.05 14.638 12.455 14.548 12.833 14.413L11.6 16.195Z" fill="#163300"/>
</g>
</svg>
