<svg width="64" height="65" viewBox="0 0 64 65" fill="none" xmlns="http://www.w3.org/2000/svg">
<g id="translate-variant">
<path id="Vector" d="M29.3334 3.46631H8.00002C5.06669 3.46631 2.66669 5.86631 2.66669 8.79964V40.7996L10.6667 32.7996H24V30.133C24 24.2663 28.7734 19.4663 34.6667 19.4663V8.79964C34.6667 5.86631 32.2667 3.46631 29.3334 3.46631ZM29.3334 11.4663H25.3334C24.4267 14.6396 22.7734 17.5996 20.48 20.1596L20.4267 20.213L23.7867 23.5463L22.8 26.2396L18.6667 22.133L12 28.7996L10.16 26.853L16.9067 20.213C15.2534 18.373 13.92 16.3196 12.96 14.133H15.6C16.4267 15.733 17.44 17.253 18.6667 18.613C20.5867 16.4796 21.9734 14.053 22.8534 11.4663H8.00002V8.79964H17.3334V6.13298H20V8.79964H29.3334V11.4663ZM56 24.7996H34.6667C31.7334 24.7996 29.3334 27.1996 29.3334 30.133V48.7996C29.3334 51.733 31.7334 54.133 34.6667 54.133H53.3334L61.3334 62.133V30.133C61.3334 27.1996 58.9334 24.7996 56 24.7996ZM52.3467 51.4663L50.08 45.4663H40.5867L38.3467 51.4663H34.3467L43.3334 27.4663H47.3334L56.3467 51.4663H52.3467ZM45.3334 32.7996L48.5867 41.4663H42.1067L45.3334 32.7996Z" fill="#311602"/>
</g>
</svg>
