<svg width="40" height="40" viewBox="0 0 40 40" fill="none" xmlns="http://www.w3.org/2000/svg">
<path d="M11.04 10.1505V16.6072L5.05262 20.0642C4.79653 20.2121 4.58388 20.4247 4.43606 20.6808C4.28823 20.9369 4.21044 21.2275 4.21051 21.5232V29.9116C4.21081 30.2069 4.28878 30.497 4.43658 30.7527C4.58439 31.0084 4.79684 31.2208 5.05262 31.3684L12.3158 35.5632C12.5718 35.711 12.8622 35.7888 13.1579 35.7888C13.4535 35.7888 13.744 35.711 14 35.5632L20 32.0979L26 35.5632C26.256 35.711 26.5464 35.7888 26.8421 35.7888C27.1377 35.7888 27.4282 35.711 27.6842 35.5632L34.9473 31.3684C35.2033 31.2207 35.4158 31.0082 35.5636 30.7523C35.7115 30.4963 35.7893 30.2061 35.7895 29.9105V21.5232C35.7895 21.2275 35.7117 20.9369 35.5639 20.6808C35.4161 20.4247 35.2034 20.2121 34.9473 20.0642L28.9347 16.5926V10.1505C28.9348 9.85482 28.857 9.56431 28.7092 9.30821C28.5613 9.0521 28.3487 8.83943 28.0926 8.69158L20.8295 4.4979C20.5734 4.35008 20.283 4.27225 19.9873 4.27225C19.6917 4.27225 19.4013 4.35008 19.1452 4.4979L11.8821 8.69158C11.626 8.83943 11.4133 9.0521 11.2655 9.30821C11.1177 9.56431 11.0399 9.85482 11.04 10.1505Z" fill="white"/>
<g style="mix-blend-mode:multiply">
<path d="M4.21054 21.5232V29.9116C4.21084 30.2069 4.28881 30.497 4.43661 30.7527C4.58442 31.0084 4.79687 31.2207 5.05265 31.3684L12.3158 35.5632C12.5718 35.711 12.8623 35.7888 13.1579 35.7888C13.4536 35.7888 13.744 35.711 14 35.5632L21.2632 31.3684C21.5191 31.2207 21.7317 31.0082 21.8795 30.7522C22.0273 30.4963 22.1052 30.206 22.1053 29.9105V21.5232C22.1053 21.2275 22.0276 20.9369 21.8797 20.6808C21.7319 20.4247 21.5193 20.2121 21.2632 20.0642L14 15.8705C13.744 15.7227 13.4536 15.6449 13.1579 15.6449C12.8623 15.6449 12.5718 15.7227 12.3158 15.8705L5.05265 20.0642C4.79656 20.2121 4.58391 20.4247 4.43609 20.6808C4.28826 20.9369 4.21047 21.2275 4.21054 21.5232Z" fill="#27B7E6"/>
</g>
<g style="mix-blend-mode:multiply">
<path d="M11.04 10.1505V18.5379C11.0399 18.8336 11.1177 19.1241 11.2656 19.3802C11.4134 19.6363 11.626 19.849 11.8821 19.9968L19.1453 24.1905C19.4013 24.3383 19.6917 24.4162 19.9874 24.4162C20.283 24.4162 20.5735 24.3383 20.8295 24.1905L28.0926 19.9968C28.3487 19.849 28.5614 19.6363 28.7092 19.3802C28.857 19.1241 28.9348 18.8336 28.9347 18.5379V10.1505C28.9348 9.85482 28.857 9.56431 28.7092 9.30821C28.5614 9.0521 28.3487 8.83943 28.0926 8.69158L20.8295 4.4979C20.5735 4.35008 20.283 4.27225 19.9874 4.27225C19.6917 4.27225 19.4013 4.35008 19.1453 4.4979L11.8821 8.69158C11.626 8.83943 11.4134 9.0521 11.2656 9.30821C11.1177 9.56431 11.0399 9.85482 11.04 10.1505Z" fill="#ED098F"/>
</g>
<g style="mix-blend-mode:multiply">
<path d="M17.8947 21.5232V29.9116C17.895 30.2069 17.973 30.497 18.1208 30.7527C18.2686 31.0084 18.4811 31.2207 18.7369 31.3684L26 35.5632C26.256 35.711 26.5465 35.7888 26.8421 35.7888C27.1378 35.7888 27.4282 35.711 27.6842 35.5632L34.9474 31.3684C35.2033 31.2207 35.4159 31.0082 35.5637 30.7522C35.7115 30.4963 35.7894 30.206 35.7895 29.9105V21.5232C35.7895 21.2275 35.7118 20.9369 35.5639 20.6808C35.4161 20.4247 35.2035 20.2121 34.9474 20.0642L27.6842 15.8705C27.4282 15.7227 27.1378 15.6449 26.8421 15.6449C26.5465 15.6449 26.256 15.7227 26 15.8705L18.7369 20.0642C18.4808 20.2121 18.2681 20.4247 18.1203 20.6808C17.9725 20.9369 17.8947 21.2275 17.8947 21.5232Z" fill="#FFCC00"/>
</g>
</svg>
