<svg xmlns="http://www.w3.org/2000/svg" width="40" height="40" viewBox="0 0 40 40" fill="none">
<path d="M31.8147 33.7095L8.18526 33.7095C7.85279 33.7095 7.52633 33.6208 7.23966 33.4524C6.95298 33.284 6.71649 33.0421 6.55465 32.7517C6.3928 32.4612 6.31147 32.1329 6.31908 31.8005C6.32668 31.4681 6.42294 31.1438 6.59789 30.8611L14.931 17.3999C13.9104 16.2247 13.2926 14.6903 13.2926 13.0116C13.2926 9.31359 16.2904 6.31579 19.9884 6.31579C23.6864 6.31579 26.6842 9.3136 26.6842 13.0116C26.6842 14.6829 26.0719 16.2112 25.0593 17.3843L33.4021 30.8611C33.5771 31.1438 33.6733 31.4681 33.6809 31.8005C33.6885 32.1329 33.6072 32.4612 33.4454 32.7517C33.2835 33.0421 33.047 33.284 32.7603 33.4524C32.4737 33.6208 32.1472 33.7095 31.8147 33.7095Z" fill="white"/>
<g style="mix-blend-mode:multiply">
<path d="M26.6842 13.0116C26.6842 9.31359 23.6864 6.31579 19.9884 6.31579C16.2904 6.31579 13.2926 9.31359 13.2926 13.0116C13.2926 16.7096 16.2904 19.7074 19.9884 19.7074C23.6864 19.7074 26.6842 16.7096 26.6842 13.0116Z" fill="#66CC33"/>
</g>
<g style="mix-blend-mode:multiply">
<path d="M8.18526 33.7095L31.8147 33.7095C32.1472 33.7095 32.4737 33.6208 32.7603 33.4524C33.047 33.284 33.2835 33.0421 33.4454 32.7517C33.6072 32.4612 33.6885 32.1329 33.6809 31.8005C33.6733 31.4681 33.5771 31.1438 33.4021 30.8611L21.5874 11.7758C21.4199 11.5055 21.1862 11.2825 20.9084 11.1278C20.6306 10.9731 20.3179 10.8919 20 10.8919C19.682 10.8919 19.3694 10.9731 19.0916 11.1278C18.8138 11.2825 18.5801 11.5055 18.4126 11.7758L6.59789 30.8611C6.42294 31.1438 6.32668 31.4681 6.31908 31.8005C6.31147 32.1329 6.3928 32.4612 6.55465 32.7517C6.71649 33.0421 6.95298 33.284 7.23966 33.4524C7.52633 33.6208 7.85279 33.7095 8.18526 33.7095Z" fill="#27B7E6"/>
</g>
</svg>