<svg width="40" height="40" viewBox="0 0 40 40" fill="none" xmlns="http://www.w3.org/2000/svg">
<g clip-path="url(#clip0_1537_2427)">
<path d="M34.4053 17.5337L28.8569 15.4589C28.659 15.3853 28.46 15.3147 28.2611 15.2484C28.3 15.0495 28.3358 14.8505 28.3663 14.6495L29.3569 8.77262C29.7621 6.36631 26.9653 4.74526 25.0779 6.29262L20.5316 10.0221C20.3495 10.1705 20.1716 10.3232 19.9948 10.4758C19.8446 10.3453 19.6926 10.2165 19.539 10.0895L14.9474 6.29473C13.0653 4.74104 10.2642 6.35368 10.6611 8.7621L11.62 14.5684C11.6579 14.7958 11.7 15.0232 11.7432 15.2484C11.5516 15.3147 11.36 15.3842 11.1695 15.4589L5.59054 17.5431C3.30423 18.3968 3.30107 21.6305 5.58528 22.4905L11.0948 24.561C11.3126 24.6432 11.5316 24.721 11.7505 24.7968C11.7126 24.9947 11.6776 25.193 11.6453 25.3916L10.6632 31.2547C10.259 33.6621 13.06 35.281 14.9453 33.7295L19.519 29.9653C19.6832 29.8291 19.846 29.6912 20.0074 29.5516C20.1667 29.6884 20.327 29.8239 20.4884 29.9579L25.0769 33.7379C26.9611 35.2905 29.7611 33.6737 29.36 31.2653L28.3853 25.4221C28.3488 25.2074 28.3098 24.9933 28.2684 24.78C28.4621 24.7098 28.6558 24.6396 28.8495 24.5695L34.4148 22.4853C36.6926 21.6231 36.6916 18.3895 34.4053 17.5337ZM19.9842 22.8789C19.4122 22.8791 18.853 22.7097 18.3774 22.3921C17.9017 22.0744 17.5309 21.6228 17.3119 21.0944C17.0929 20.566 17.0356 19.9845 17.1471 19.4235C17.2586 18.8625 17.5341 18.3472 17.9385 17.9427C18.343 17.5382 18.8583 17.2628 19.4193 17.1513C19.9803 17.0398 20.5618 17.0971 21.0902 17.3161C21.6186 17.5351 22.0702 17.9059 22.3879 18.3815C22.7055 18.8572 22.875 19.4164 22.8748 19.9884C22.875 20.7544 22.5712 21.4891 22.0299 22.0311C21.4887 22.5732 20.7544 22.8781 19.9884 22.8789H19.9842Z" fill="white"/>
<g style="mix-blend-mode:multiply">
<path d="M34.4053 17.5337L28.8569 15.459C23.1524 13.3266 16.8697 13.3266 11.1653 15.459L5.58633 17.5432C3.30002 18.3969 3.29686 21.6305 5.58107 22.4905L11.0905 24.5611C16.8125 26.7115 23.12 26.7149 28.8442 24.5705L34.4095 22.4863C36.6927 21.6232 36.6916 18.3895 34.4053 17.5337ZM19.9842 22.879C19.4122 22.8792 18.853 22.7097 18.3774 22.3921C17.9017 22.0744 17.5309 21.6228 17.3119 21.0944C17.0929 20.566 17.0356 19.9845 17.1471 19.4235C17.2586 18.8625 17.5341 18.3472 17.9385 17.9427C18.343 17.5383 18.8583 17.2629 19.4193 17.1513C19.9803 17.0398 20.5618 17.0971 21.0902 17.3161C21.6186 17.5351 22.0702 17.9059 22.3879 18.3816C22.7055 18.8572 22.875 19.4164 22.8748 19.9884C22.875 20.7544 22.5712 21.4891 22.0299 22.0312C21.4887 22.5732 20.7544 22.8781 19.9884 22.879H19.9842Z" fill="#27B7E6"/>
</g>
<g style="mix-blend-mode:multiply">
<path d="M29.3505 31.2631L28.3758 25.42C27.3729 19.4134 24.2349 13.9709 19.5389 10.0937L14.9473 6.29473C13.0652 4.74104 10.2642 6.35368 10.661 8.7621L11.62 14.5684C12.6168 20.5993 15.7656 26.0645 20.4831 29.9516L25.0716 33.7316C26.9473 35.2842 29.7516 33.6674 29.3505 31.2631ZM19.9884 22.8832C19.4164 22.8834 18.8572 22.7139 18.3815 22.3963C17.9058 22.0786 17.5351 21.627 17.3161 21.0986C17.0971 20.5702 17.0397 19.9887 17.1513 19.4277C17.2628 18.8667 17.5382 18.3514 17.9427 17.9469C18.3471 17.5425 18.8625 17.267 19.4235 17.1555C19.9845 17.044 20.566 17.1013 21.0944 17.3203C21.6228 17.5393 22.0744 17.9101 22.392 18.3858C22.7097 18.8614 22.8791 19.4206 22.8789 19.9926C22.8781 20.7586 22.5731 21.4929 22.0311 22.0341C21.4891 22.5753 20.7544 22.8792 19.9884 22.8789V22.8832Z" fill="#27B7E6"/>
</g>
<g style="mix-blend-mode:multiply">
<path d="M25.0821 6.28949L20.5316 10.0221C15.8043 13.8997 12.6437 19.36 11.6358 25.3905L10.6537 31.2537C10.2495 33.6611 13.0506 35.28 14.9358 33.7284L19.5095 29.9642C24.2113 26.094 27.3578 20.6565 28.3706 14.6516L29.3611 8.77475C29.7663 6.36317 26.9695 4.74212 25.0821 6.28949ZM19.9884 22.879C19.4165 22.8792 18.8573 22.7097 18.3816 22.3921C17.9059 22.0744 17.5351 21.6228 17.3161 21.0944C17.0971 20.566 17.0398 19.9845 17.1513 19.4235C17.2629 18.8625 17.5383 18.3472 17.9427 17.9427C18.3472 17.5383 18.8625 17.2629 19.4235 17.1513C19.9845 17.0398 20.566 17.0971 21.0944 17.3161C21.6229 17.5351 22.0744 17.9059 22.3921 18.3816C22.7097 18.8572 22.8792 19.4164 22.879 19.9884C22.8791 20.3681 22.8044 20.744 22.6592 21.0948C22.514 21.4455 22.3011 21.7642 22.0327 22.0327C21.7642 22.3011 21.4455 22.514 21.0948 22.6592C20.744 22.8044 20.3681 22.8791 19.9884 22.879Z" fill="#27B7E6"/>
</g>
</g>
<defs>
<clipPath id="clip0_1537_2427">
<rect width="40" height="40" fill="white"/>
</clipPath>
</defs>
</svg>
