<svg width="40" height="40" viewBox="0 0 40 40" fill="none" xmlns="http://www.w3.org/2000/svg">
<g clip-path="url(#clip0_1499_2765)">
<path d="M27.4347 22.9305C27.8172 22.5485 28.1199 22.0943 28.3254 21.5943C28.5308 21.0943 28.6349 20.5584 28.6316 20.0179V20C28.6323 19.4179 28.5087 18.8424 28.2691 18.3119C28.0294 17.7814 27.6792 17.3083 27.2419 16.9241C26.8046 16.5399 26.2903 16.2535 25.7334 16.0842C25.1764 15.9148 24.5898 15.8664 24.0126 15.9421L18.2474 15.9295L22.7052 11.5253C23.473 10.7575 23.9043 9.71626 23.9043 8.63052C23.9043 7.54478 23.473 6.50351 22.7052 5.73578C21.9375 4.96805 20.8962 4.53674 19.8105 4.53674C18.7248 4.53674 17.6835 4.96805 16.9158 5.73578L5.40736 17.1042L5.40104 17.1105C5.31683 17.1947 5.23683 17.2832 5.15999 17.3747C5.11262 17.4316 5.0663 17.4895 5.02104 17.5495C4.94315 17.6547 4.86946 17.76 4.80104 17.8758C4.42606 18.4965 4.22268 19.2056 4.21171 19.9307C4.20074 20.6558 4.38256 21.3707 4.73859 22.0025C5.09461 22.6342 5.61206 23.16 6.23799 23.5262C6.86393 23.8923 7.57589 24.0856 8.30104 24.0863L14.7716 24.1L10.4558 28.4716C9.68805 29.2393 9.25674 30.2806 9.25674 31.3663C9.25674 32.452 9.68805 33.4933 10.4558 34.261C11.2235 35.0288 12.2648 35.4601 13.3505 35.4601C14.4363 35.4601 15.4775 35.0288 16.2453 34.261L27.4305 22.9242L27.4347 22.9305Z" fill="white"/>
<path d="M30.463 35.4609C32.7098 34.9306 34.1013 32.6793 33.571 30.4325C33.0407 28.1856 30.7894 26.7941 28.5426 27.3244C26.2958 27.8547 24.9043 30.106 25.4346 32.3528C25.9649 34.5996 28.2162 35.9912 30.463 35.4609Z" fill="white"/>
<g style="mix-blend-mode:multiply">
<path d="M27.4347 17.1421C27.0546 16.7619 26.6033 16.4604 26.1066 16.2547C25.6099 16.0489 25.0776 15.943 24.54 15.943C24.0024 15.943 23.47 16.0489 22.9734 16.2547C22.4767 16.4604 22.0254 16.7619 21.6453 17.1421L10.46 28.4789C9.69226 29.2467 9.26096 30.2879 9.26096 31.3737C9.26096 32.4594 9.69226 33.5007 10.46 34.2684C11.2277 35.0361 12.269 35.4675 13.3547 35.4675C14.4405 35.4675 15.4817 35.0361 16.2495 34.2684L27.4347 22.9316C27.8149 22.5514 28.1164 22.1001 28.3222 21.6035C28.5279 21.1068 28.6338 20.5744 28.6338 20.0368C28.6338 19.4992 28.5279 18.9669 28.3222 18.4702C28.1164 17.9735 27.8149 17.5222 27.4347 17.1421Z" fill="#ED098F"/>
</g>
<g style="mix-blend-mode:multiply">
<path d="M22.7063 5.73685C22.3263 5.35644 21.8751 5.05467 21.3784 4.84877C20.8817 4.64287 20.3493 4.5369 19.8116 4.5369C19.2739 4.5369 18.7415 4.64287 18.2448 4.84877C17.7481 5.05467 17.2968 5.35644 16.9168 5.73685L5.40842 17.1053C4.64069 17.873 4.20938 18.9143 4.20938 20C4.20938 21.0857 4.64069 22.127 5.40842 22.8947C6.17615 23.6625 7.21742 24.0938 8.30316 24.0938C9.38889 24.0938 10.4302 23.6625 11.1979 22.8947L22.7063 11.5263C23.0865 11.1462 23.388 10.6949 23.5938 10.1982C23.7995 9.70153 23.9054 9.16919 23.9054 8.63158C23.9054 8.09398 23.7995 7.56164 23.5938 7.06495C23.388 6.56827 23.0865 6.11698 22.7063 5.73685Z" fill="#FFCC00"/>
</g>
<g style="mix-blend-mode:multiply">
<path d="M24.54 15.9074C24.364 15.9077 24.1882 15.9193 24.0137 15.9421L8.30316 15.9074C7.22895 15.9246 6.20457 16.3634 5.45101 17.1292C4.69745 17.8949 4.27512 18.9262 4.27512 20.0005C4.27512 21.0749 4.69745 22.1062 5.45101 22.8719C6.20457 23.6376 7.22895 24.0765 8.30316 24.0937L24.54 24.1295V24.0937C25.6142 24.0765 26.6386 23.6376 27.3921 22.8719C28.1457 22.1062 28.568 21.0749 28.568 20.0005C28.568 18.9262 28.1457 17.8949 27.3921 17.1292C26.6386 16.3634 25.6142 15.9246 24.54 15.9074Z" fill="#27B7E6"/>
</g>
<g style="mix-blend-mode:multiply">
<path d="M29.5042 35.5705C31.8128 35.5705 33.6842 33.6991 33.6842 31.3905C33.6842 29.082 31.8128 27.2105 29.5042 27.2105C27.1957 27.2105 25.3242 29.082 25.3242 31.3905C25.3242 33.6991 27.1957 35.5705 29.5042 35.5705Z" fill="#66CC33"/>
</g>
</g>
<defs>
<clipPath id="clip0_1499_2765">
<rect width="40" height="40" fill="white"/>
</clipPath>
</defs>
</svg>
