<svg viewBox="0 0 34 53" fill="none" xmlns="http://www.w3.org/2000/svg">
<path d="M28.6667 5.50001H21.6667V12.5H12.3334V5.50001H5.33335C4.09568 5.50001 2.90869 5.99168 2.03352 6.86685C1.15835 7.74202 0.666687 8.929 0.666687 10.1667V47.5C0.666687 48.7377 1.15835 49.9247 2.03352 50.7998C2.90869 51.675 4.09568 52.1667 5.33335 52.1667H28.6667C29.9044 52.1667 31.0913 51.675 31.9665 50.7998C32.8417 49.9247 33.3334 48.7377 33.3334 47.5V10.1667C33.3334 8.929 32.8417 7.74202 31.9665 6.86685C31.0913 5.99168 29.9044 5.50001 28.6667 5.50001ZM17 17.1667C18.2377 17.1667 19.4247 17.6583 20.2999 18.5335C21.175 19.4087 21.6667 20.5957 21.6667 21.8333C21.6667 23.071 21.175 24.258 20.2999 25.1332C19.4247 26.0083 18.2377 26.5 17 26.5C15.7623 26.5 14.5754 26.0083 13.7002 25.1332C12.825 24.258 12.3334 23.071 12.3334 21.8333C12.3334 20.5957 12.825 19.4087 13.7002 18.5335C14.5754 17.6583 15.7623 17.1667 17 17.1667ZM26.3334 35.8333H7.66669V33.5C7.66669 30.3967 13.8967 28.8333 17 28.8333C20.1034 28.8333 26.3334 30.3967 26.3334 33.5V35.8333ZM19.3334 10.1667H14.6667V0.833344H19.3334V10.1667ZM26.3334 42.8333H7.66669V40.5H26.3334V42.8333ZM17 47.5H7.66669V45.1667H17V47.5Z" fill="currentColor"/>
</svg>
