<svg width="40" height="40" viewBox="0 0 40 40" fill="none" xmlns="http://www.w3.org/2000/svg">
<g id="state=active" clip-path="url(#clip0_1253_2273)">
<g id="Group">
<g id="Layer 1">
<path id="Union" d="M6.29053 31.8147V8.18526C6.29046 7.85279 6.37922 7.52633 6.54761 7.23966C6.716 6.95298 6.95791 6.71649 7.24833 6.55465C7.53875 6.3928 7.86714 6.31147 8.19952 6.31908C8.53191 6.32668 8.85623 6.42294 9.13895 6.59789L22.6001 14.931C23.7753 13.9104 25.3097 13.2926 26.9884 13.2926C30.6864 13.2926 33.6842 16.2904 33.6842 19.9884C33.6842 23.6864 30.6864 26.6842 26.9884 26.6842C25.3171 26.6842 23.7888 26.0719 22.6157 25.0593L9.13895 33.4021C8.85623 33.5771 8.53191 33.6733 8.19952 33.6809C7.86714 33.6885 7.53875 33.6072 7.24833 33.4454C6.95791 33.2835 6.716 33.047 6.54761 32.7603C6.37922 32.4737 6.29046 32.1472 6.29053 31.8147Z" fill="white"/>
<g id="Vector" style="mix-blend-mode:multiply">
<path d="M26.9884 26.6842C30.6864 26.6842 33.6842 23.6864 33.6842 19.9884C33.6842 16.2904 30.6864 13.2926 26.9884 13.2926C23.2904 13.2926 20.2926 16.2904 20.2926 19.9884C20.2926 23.6864 23.2904 26.6842 26.9884 26.6842Z" fill="#66CC33"/>
</g>
<g id="Vector_2" style="mix-blend-mode:multiply">
<path d="M6.29053 8.18526V31.8147C6.29046 32.1472 6.37922 32.4737 6.54761 32.7603C6.716 33.047 6.95791 33.2835 7.24833 33.4454C7.53875 33.6072 7.86714 33.6885 8.19952 33.6809C8.53191 33.6733 8.85623 33.5771 9.13895 33.4021L28.2242 21.5874C28.4945 21.4199 28.7175 21.1862 28.8722 20.9084C29.0269 20.6306 29.1081 20.3179 29.1081 20C29.1081 19.682 29.0269 19.3694 28.8722 19.0916C28.7175 18.8138 28.4945 18.5801 28.2242 18.4126L9.13895 6.59789C8.85623 6.42294 8.53191 6.32668 8.19952 6.31908C7.86714 6.31147 7.53875 6.3928 7.24833 6.55465C6.95791 6.71649 6.716 6.95298 6.54761 7.23966C6.37922 7.52633 6.29046 7.85279 6.29053 8.18526Z" fill="#27B7E6"/>
</g>
</g>
</g>
</g>
<defs>
<clipPath id="clip0_1253_2273">
<rect width="40" height="40" fill="white"/>
</clipPath>
</defs>
</svg>
