<svg width="40" height="40" viewBox="0 0 40 40" fill="none" xmlns="http://www.w3.org/2000/svg">
<g id="gas-icon" clip-path="url(#clip0_725_11081)">
<g id="Group">
<g id="Layer 1">
<g id="Vector" style="mix-blend-mode:multiply">
<path d="M27.6359 11.6432C28.0355 11.6431 28.4227 11.5045 28.7315 11.2509C29.0404 10.9974 29.2518 10.6446 29.3298 10.2527C29.4077 9.86077 29.3474 9.45395 29.159 9.10153C28.9706 8.74911 28.6659 8.4729 28.2967 8.31995C27.9276 8.167 27.5168 8.14678 27.1344 8.26273C26.752 8.37868 26.4216 8.62362 26.1995 8.95583C25.9774 9.28805 25.8774 9.68698 25.9165 10.0847C25.9555 10.4823 26.1313 10.8542 26.4138 11.1368C26.5741 11.2975 26.7646 11.4249 26.9744 11.5118C27.1841 11.5987 27.4089 11.6433 27.6359 11.6432Z" fill="white"/>
</g>
<g id="Vector_2" style="mix-blend-mode:multiply">
<path d="M30.3338 13.7042C29.2939 12.664 27.9584 11.97 26.5094 11.717C25.0605 11.4639 23.5688 11.6643 22.238 12.2905V11.041C22.238 10.3593 21.9671 9.70548 21.4851 9.22341C21.003 8.74134 20.3492 8.47052 19.6674 8.47052H11.9548C11.2731 8.47052 10.6192 8.74134 10.1372 9.22341C9.6551 9.70548 9.38428 10.3593 9.38428 11.041V29.041C9.38456 29.7227 9.65547 30.3764 10.1375 30.8584C10.6195 31.3404 11.2731 31.6113 11.9548 31.6116H19.6674C20.3491 31.6113 21.0028 31.3404 21.4848 30.8584C21.9668 30.3764 22.2377 29.7227 22.238 29.041V27.5389C22.7449 27.539 23.2386 27.3764 23.6462 27.0749C24.0538 26.7734 24.3538 26.349 24.5022 25.8642C24.7601 25.8932 25.0195 25.908 25.279 25.9084C26.6929 25.9082 28.075 25.4888 29.2504 24.7031C30.4259 23.9174 31.342 22.8008 31.8828 21.4944C32.4236 20.1881 32.5649 18.7507 32.2888 17.364C32.0127 15.9774 31.3316 14.7037 30.3316 13.7042H30.3338ZM11.9548 11.041H19.6674V14.3358C18.9469 15.2485 18.4605 16.3236 18.2506 17.4674H11.9548V11.041ZM28.4211 22.86C27.7592 22.8612 27.1174 22.6328 26.605 22.2139C26.0926 21.7949 25.7413 21.2112 25.611 20.5623C25.4807 19.9133 25.5794 19.2393 25.8903 18.655C26.2012 18.0707 26.7051 17.6122 27.3161 17.3578C27.9271 17.1033 28.6075 17.0686 29.2412 17.2595C29.875 17.4504 30.423 17.8551 30.7918 18.4047C31.1606 18.9544 31.3274 19.6148 31.2639 20.2737C31.2003 20.9325 30.9103 21.5489 30.4432 22.0179C30.1781 22.2843 29.863 22.4959 29.5161 22.6404C29.1691 22.7849 28.797 22.8595 28.4211 22.86Z" fill="white"/>
</g>
<g id="Vector_3" style="mix-blend-mode:multiply">
<path d="M19.6674 17.4674H11.9548V11.0463H19.6674M22.238 11.0463C22.238 10.7087 22.1715 10.3745 22.0423 10.0626C21.9131 9.75074 21.7238 9.46737 21.4851 9.22867C21.2464 8.98998 20.963 8.80064 20.6511 8.67145C20.3393 8.54227 20.005 8.47578 19.6674 8.47578H11.9548C11.2731 8.47578 10.6192 8.74661 10.1372 9.22867C9.6551 9.71074 9.38428 10.3646 9.38428 11.0463V29.0463C9.38456 29.728 9.65547 30.3816 10.1375 30.8636C10.6195 31.3456 11.2731 31.6166 11.9548 31.6168H19.6674C20.3491 31.6166 21.0028 31.3456 21.4848 30.8636C21.9668 30.3816 22.2377 29.728 22.238 29.0463V11.0463Z" fill="#FF9900"/>
</g>
<g id="Vector_4" style="mix-blend-mode:multiply">
<path d="M27.6359 11.6432C27.2359 11.6434 26.8483 11.505 26.539 11.2515C26.2297 10.998 26.0179 10.645 25.9396 10.2528C25.8614 9.86064 25.9216 9.45344 26.11 9.10065C26.2983 8.74787 26.6032 8.47131 26.9726 8.31813C27.3421 8.16494 27.7532 8.14461 28.1359 8.26059C28.5187 8.37656 28.8493 8.62168 29.0716 8.95416C29.2939 9.28664 29.3939 9.6859 29.3548 10.0839C29.3157 10.4819 29.1397 10.854 28.8569 11.1368C28.533 11.4606 28.0939 11.6427 27.6359 11.6432Z" fill="#66CC33"/>
</g>
<g id="Vector_5" style="mix-blend-mode:multiply">
<path d="M30.3337 13.7042C29.1641 12.5352 27.6253 11.808 25.9796 11.6463C24.3339 11.4847 22.6831 11.8987 21.3085 12.8178C19.9338 13.7369 18.9203 15.1042 18.4408 16.6868C17.9613 18.2693 18.0453 19.9692 18.6786 21.4967C19.3119 23.0243 20.4553 24.285 21.9139 25.064C23.3725 25.843 25.0561 26.0922 26.6778 25.769C28.2996 25.4459 29.7591 24.5704 30.8076 23.2918C31.8562 22.0131 32.429 20.4105 32.4284 18.7568C32.4274 16.8616 31.6739 15.0443 30.3337 13.7042ZM28.421 22.8621C27.7591 22.8633 27.1173 22.6349 26.6049 22.216C26.0925 21.797 25.7412 21.2133 25.6109 20.5644C25.4806 19.9155 25.5793 19.2414 25.8902 18.6571C26.2011 18.0728 26.705 17.6143 27.316 17.3599C27.9271 17.1054 28.6074 17.0707 29.2412 17.2616C29.8749 17.4525 30.4229 17.8572 30.7917 18.4069C31.1605 18.9565 31.3273 19.617 31.2638 20.2758C31.2002 20.9346 30.9102 21.551 30.4431 22.02C30.1779 22.2861 29.8627 22.4972 29.5157 22.6413C29.1688 22.7855 28.7968 22.8598 28.421 22.86V22.8621Z" fill="#27B7E6"/>
</g>
<g id="Vector_6" style="mix-blend-mode:multiply">
<path d="M22.2379 27.5389C21.69 27.5397 21.1588 27.3504 20.7348 27.0034C20.3108 26.6564 20.0202 26.1732 19.9125 25.636C19.8048 25.0988 19.8868 24.5409 20.1443 24.0573C20.4018 23.5737 20.8191 23.1943 21.3249 22.9838C21.8307 22.7734 22.3939 22.7448 22.9185 22.9029C23.4431 23.0611 23.8966 23.3963 24.2017 23.8513C24.5069 24.3063 24.6449 24.8531 24.5922 25.3984C24.5395 25.9438 24.2993 26.454 23.9126 26.8421C23.693 27.0627 23.4321 27.2378 23.1447 27.3574C22.8573 27.4769 22.5492 27.5387 22.2379 27.5389Z" fill="#ED098F"/>
</g>
</g>
</g>
</g>
<defs>
<clipPath id="clip0_725_11081">
<rect width="40" height="40" fill="white"/>
</clipPath>
</defs>
</svg>
