<svg fill="currentColor" version="1.1" xmlns="http://www.w3.org/2000/svg" xmlns:xlink="http://www.w3.org/1999/xlink" x="0px" y="0px" viewBox="0 0 1000 1000" enable-background="new 0 0 1000 1000" xml:space="preserve">
<g><g transform="translate(0.000000,512.000000) scale(0.100000,-0.100000)"><path d="M4550,5004.1c-928.7-95.7-1771.3-423.2-2512.4-976.6c-241.3-180-762.1-700.9-942.1-942.1c-1328.9-1780.9-1327-4145.8,3.8-5928.6c176.2-237.4,697-758.3,934.5-934.5C3567.7-4922.8,5541.9-5097,7236.6-4235.3c764,390.6,1449.6,1018.7,1914.9,1756c513.2,815.8,783.2,1817.2,744.9,2774.7c-42.1,1026.4-377.2,1968.5-993.8,2791.9c-170.4,227.9-578.3,649.2-810,836.8c-674,547.7-1507,915.3-2374.5,1045.5C5428.9,5013.6,4814.3,5032.8,4550,5004.1z M5000,1961.3h1838.3v-612.8V735.7H5000H3161.7V119.1v-618.5l-923,923l-924.9,924.9l919.2,919.2l919.2,919.2l5.7-612.8l3.8-612.8H5000z M7761.3-2638.3l-923-924.9v618.5v616.6H5000H3161.7v612.8v612.8H5000h1838.3V-486v618.5l923-924.9l924.9-923L7761.3-2638.3z"/></g></g>
</svg>
