<svg width="64" height="65" viewBox="0 0 64 65" fill="none" xmlns="http://www.w3.org/2000/svg">
<g id="chemical-weapon">
<path id="Vector" d="M29.3333 21.68C26.2133 20.5866 24 17.6 24 14.1333C24 12.0116 24.8429 9.97674 26.3431 8.47645C27.8434 6.97616 29.8783 6.1333 32 6.1333C34.1217 6.1333 36.1566 6.97616 37.6569 8.47645C39.1572 9.97674 40 12.0116 40 14.1333C40 17.6266 37.76 20.5866 34.6667 21.68V29.1733C33.8133 28.9333 32.9333 28.8 32 28.8C31.0667 28.8 30.1867 28.9333 29.3333 29.1733V21.68ZM48.8 57.0666C45.76 55.3333 44.32 51.9466 44.9067 48.6933L38.4 44.9333C39.68 43.7066 40.64 42.1333 41.0667 40.32L47.5733 44.08C50.08 41.92 53.76 41.4933 56.7733 43.2266C60.6133 45.44 61.92 50.32 59.7067 54.1333C57.4933 57.9733 52.6133 59.28 48.8 57.0666ZM7.2 43.2C10.2133 41.4666 13.8933 41.92 16.4 44.0533L22.9333 40.2933C23.36 42.1333 24.2933 43.68 25.6 44.9066L19.0667 48.6666C19.68 51.92 18.2133 55.3333 15.2 57.0666C11.36 59.28 6.48 57.9733 4.26667 54.1333C2.05334 50.32 3.36 45.4133 7.2 43.2ZM37.3333 38.1333C37.3333 39.5478 36.7714 40.9043 35.7712 41.9045C34.771 42.9047 33.4145 43.4666 32 43.4666C29.04 43.4666 26.6667 41.0666 26.6667 38.1333C26.6667 36.7188 27.2286 35.3623 28.2288 34.3621C29.229 33.3619 30.5855 32.8 32 32.8C34.96 32.8 37.3333 35.2 37.3333 38.1333ZM45.3333 38.1333L45.2533 39.6533L41.3333 37.36C41.0667 34.5066 39.5467 32.0266 37.3333 30.4533V25.8933C42.0533 27.9733 45.3333 32.6666 45.3333 38.1333ZM39.92 48.88C37.7067 50.5066 34.96 51.4666 32 51.4666C29.04 51.4666 26.2933 50.5066 24.08 48.8L28 46.5866C29.2267 47.1466 30.5867 47.4666 32 47.4666C33.4133 47.4666 34.7467 47.1466 36 46.5866L39.92 48.88ZM18.7467 39.6266L18.6667 38.1333C18.6667 32.6666 21.9467 27.9733 26.6667 25.92V30.48C24.4533 32.0266 22.9333 34.5066 22.6667 37.3333L18.7467 39.6266Z" fill="#311602"/>
</g>
</svg>
