<?xml version="1.0" encoding="UTF-8"?>
<svg id="a" xmlns="http://www.w3.org/2000/svg" version="1.1" viewBox="0 0 58.6 62">
  <!-- Generator: Adobe Illustrator 29.7.1, SVG Export Plug-In . SVG Version: 2.1.1 Build 8)  -->
  <defs>
    <style>
      .st0 {
        fill: #75b5a6;
      }

      .st1 {
        fill: #252c33;
      }

      .st2 {
        fill: #3c635b;
      }

      .st3 {
        fill: #489688;
      }

      .st4 {
        fill: #283240;
      }

      .st5 {
        fill: #3c495c;
      }
    </style>
  </defs>
  <g id="wrapper">
    <g id="hexagons">
      <g id="behind-hexagons">
        <g>
          <polygon class="st4" points="34.2 16.9 29.3 19.7 24.5 16.9 29.3 14.1 34.2 16.9"/>
          <polygon class="st1" points="34.2 16.9 34.2 22.5 29.3 25.3 29.3 19.7 34.2 16.9"/>
          <polygon class="st5" points="29.3 19.7 29.3 25.3 24.4 22.5 24.4 16.9 29.3 19.7"/>
        </g>
        <g>
          <polygon class="st4" points="44 33.8 39.1 36.6 34.2 33.8 39.1 31 44 33.8"/>
          <polygon class="st1" points="44 33.9 44 39.5 39.1 42.3 39.1 36.7 44 33.9"/>
          <polygon class="st5" points="39.1 36.7 39.1 42.3 34.2 39.5 34.2 33.9 39.1 36.7"/>
        </g>
        <g>
          <polygon class="st4" points="24.4 33.8 19.5 36.6 14.7 33.8 19.5 31 24.4 33.8"/>
          <polygon class="st1" points="24.4 33.9 24.4 39.5 19.6 42.3 19.6 36.7 24.4 33.9"/>
          <polygon class="st5" points="19.5 36.7 19.5 42.3 14.7 39.5 14.7 33.9 19.5 36.7"/>
        </g>
      </g>
      <g id="green-hexagons">
        <g>
          <polygon class="st3" points="19.5 36.7 14.7 39.5 9.8 36.7 14.7 33.8 19.5 36.7"/>
          <polygon class="st2" points="19.5 36.7 19.5 42.3 14.7 45.1 14.7 39.5 19.5 36.7"/>
          <polygon class="st0" points="14.6 39.5 14.6 45.1 9.8 42.3 9.8 36.7 14.6 39.5"/>
        </g>
        <g>
          <polygon class="st3" points="48.8 36.7 44 39.5 39.1 36.7 44 33.9 48.8 36.7"/>
          <polygon class="st2" points="48.9 36.7 48.9 42.3 44 45.1 44 39.5 48.9 36.7"/>
          <polygon class="st0" points="44 39.5 44 45.1 39.1 42.3 39.1 36.7 44 39.5"/>
        </g>
        <g>
          <polygon class="st3" points="34.2 11.3 29.3 14.1 24.5 11.3 29.3 8.5 34.2 11.3"/>
          <polygon class="st2" points="34.2 11.3 34.2 16.9 29.3 19.7 29.3 14.1 34.2 11.3"/>
          <polygon class="st0" points="29.3 14.1 29.3 19.7 24.4 16.9 24.4 11.3 29.3 14.1"/>
        </g>
      </g>
      <g id="bottom-y">
        <g>
          <polygon class="st4" points="34.2 45.1 29.3 47.9 24.5 45.1 29.3 42.3 34.2 45.1"/>
          <polygon class="st1" points="34.2 45.2 34.2 50.8 29.3 53.6 29.3 48 34.2 45.2"/>
          <polygon class="st5" points="29.3 48 29.3 53.6 24.4 50.8 24.4 45.2 29.3 48"/>
        </g>
        <g>
          <polygon class="st4" points="29.3 36.7 24.4 39.5 19.6 36.7 24.4 33.9 29.3 36.7"/>
          <polygon class="st1" points="29.3 36.7 29.3 42.3 24.4 45.1 24.4 39.5 29.3 36.7"/>
          <polygon class="st5" points="24.4 39.5 24.4 45.1 19.6 42.3 19.6 36.7 24.4 39.5"/>
        </g>
        <g>
          <polygon class="st4" points="39.1 36.7 34.2 39.5 29.3 36.7 34.2 33.9 39.1 36.7"/>
          <polygon class="st1" points="39.1 36.7 39.1 42.3 34.2 45.1 34.2 39.5 39.1 36.7"/>
          <polygon class="st5" points="34.2 39.5 34.2 45.1 29.3 42.3 29.3 36.7 34.2 39.5"/>
        </g>
        <g>
          <polygon class="st4" points="34.2 39.5 29.3 42.3 24.5 39.5 29.3 36.7 34.2 39.5"/>
          <polygon class="st1" points="34.2 39.5 34.2 45.1 29.3 47.9 29.3 42.3 34.2 39.5"/>
          <polygon class="st5" points="29.3 42.3 29.3 47.9 24.4 45.1 24.4 39.5 29.3 42.3"/>
        </g>
      </g>
      <g id="right-y">
        <g>
          <polygon class="st4" points="44 28.2 39.1 31 34.2 28.2 39.1 25.4 44 28.2"/>
          <polygon class="st1" points="44 28.2 44 33.8 39.1 36.6 39.1 31 44 28.2"/>
          <polygon class="st5" points="39.1 31 39.1 36.6 34.2 33.8 34.2 28.2 39.1 31"/>
        </g>
        <g>
          <polygon class="st4" points="39.1 19.7 34.2 22.5 29.3 19.7 34.2 16.9 39.1 19.7"/>
          <polygon class="st1" points="39.1 19.8 39.1 25.4 34.2 28.2 34.2 22.6 39.1 19.8"/>
          <polygon class="st5" points="34.2 22.6 34.2 28.2 29.3 25.4 29.3 19.8 34.2 22.6"/>
        </g>
        <g>
          <polygon class="st4" points="48.8 19.7 44 22.5 39.1 19.7 44 16.9 48.8 19.7"/>
          <polygon class="st1" points="48.9 19.8 48.9 25.4 44 28.2 44 22.6 48.9 19.8"/>
          <polygon class="st5" points="44 22.6 44 28.2 39.1 25.4 39.1 19.8 44 22.6"/>
        </g>
        <g>
          <polygon class="st4" points="44 22.5 39.1 25.4 34.2 22.5 39.1 19.7 44 22.5"/>
          <polygon class="st1" points="44 22.6 44 28.2 39.1 31 39.1 25.4 44 22.6"/>
          <polygon class="st5" points="39.1 25.4 39.1 31 34.2 28.2 34.2 22.6 39.1 25.4"/>
        </g>
      </g>
      <g id="left-y">
        <g>
          <polygon class="st4" points="24.4 28.2 19.5 31 14.7 28.2 19.5 25.4 24.4 28.2"/>
          <polygon class="st1" points="24.4 28.2 24.4 33.8 19.6 36.6 19.6 31 24.4 28.2"/>
          <polygon class="st5" points="19.5 31 19.5 36.6 14.7 33.8 14.7 28.2 19.5 31"/>
        </g>
        <g>
          <polygon class="st4" points="19.5 19.7 14.7 22.5 9.8 19.7 14.7 16.9 19.5 19.7"/>
          <polygon class="st1" points="19.5 19.8 19.5 25.4 14.7 28.2 14.7 22.6 19.5 19.8"/>
          <polygon class="st5" points="14.6 22.6 14.6 28.2 9.8 25.4 9.8 19.8 14.6 22.6"/>
        </g>
        <g>
          <polygon class="st4" points="29.3 19.7 24.4 22.5 19.6 19.7 24.4 16.9 29.3 19.7"/>
          <polygon class="st1" points="29.3 19.8 29.3 25.4 24.4 28.2 24.4 22.6 29.3 19.8"/>
          <polygon class="st5" points="24.4 22.6 24.4 28.2 19.6 25.4 19.6 19.8 24.4 22.6"/>
        </g>
        <g>
          <polygon class="st4" points="24.4 22.5 19.5 25.4 14.7 22.5 19.5 19.7 24.4 22.5"/>
          <polygon class="st1" points="24.4 22.6 24.4 28.2 19.6 31 19.6 25.4 24.4 22.6"/>
          <polygon class="st5" points="19.5 25.4 19.5 31 14.7 28.2 14.7 22.6 19.5 25.4"/>
        </g>
      </g>
    </g>
  </g>
</svg>
