<?xml version="1.0" encoding="UTF-8"?>
<svg id="logo" xmlns="http://www.w3.org/2000/svg" version="1.1" viewBox="0 0 215.1 62">
  <defs>
    <style>
      .kadena {
        fill: #282828;
      }

      .title {
        fill: #3c495c;
      }
    </style>
  </defs>
  <g id="wrapper">
    <g id="chainweb-evm-logo-text">
      <path class="title" d="M27.4,33.8h-3.6c-.1-.6-.3-1.1-.6-1.6-.3-.5-.6-.9-1-1.2-.4-.3-.9-.6-1.4-.7-.5-.2-1.1-.2-1.7-.2-1.1,0-2,.3-2.9.8-.8.5-1.5,1.3-2,2.4-.5,1-.7,2.3-.7,3.8s.2,2.8.7,3.8c.5,1,1.1,1.8,2,2.3.8.5,1.8.8,2.8.8s1.1,0,1.7-.2c.5-.2,1-.4,1.4-.7.4-.3.8-.7,1.1-1.1.3-.5.5-1,.6-1.5h3.6c-.1,1-.4,1.8-.9,2.7-.4.8-1,1.6-1.8,2.2-.7.6-1.6,1.1-2.5,1.5s-2,.5-3.2.5c-1.7,0-3.3-.4-4.7-1.2-1.4-.8-2.4-2-3.2-3.5-.8-1.5-1.2-3.3-1.2-5.5s.4-4,1.2-5.5,1.9-2.7,3.2-3.5c1.4-.8,2.9-1.2,4.6-1.2s2.1.2,3.1.5c.9.3,1.8.8,2.5,1.4.7.6,1.4,1.3,1.8,2.2.5.9.8,1.8.9,2.9Z"/>
      <path class="title" d="M34,38.2v8.7h-3.5v-19.8h3.4v7.5h.2c.3-.8.9-1.5,1.6-2,.7-.5,1.7-.7,2.8-.7s1.9.2,2.7.6c.8.4,1.4,1.1,1.8,1.9.4.8.6,1.8.6,3v9.4h-3.5v-8.9c0-1-.3-1.8-.8-2.3-.5-.6-1.2-.8-2.1-.8s-1.2.1-1.7.4c-.5.3-.9.7-1.1,1.2-.3.5-.4,1.1-.4,1.8h0Z"/>
      <path class="title" d="M51.5,47.2c-.9,0-1.8-.2-2.5-.5-.8-.3-1.3-.8-1.8-1.5-.4-.7-.7-1.5-.7-2.5s.2-1.5.5-2.1c.3-.5.7-1,1.3-1.3.5-.3,1.1-.6,1.8-.7.7-.2,1.4-.3,2.1-.4.9,0,1.6-.2,2.1-.2.5,0,.9-.2,1.2-.3.2-.2.4-.4.4-.7h0c0-.8-.2-1.3-.6-1.7-.4-.4-1.1-.6-1.9-.6s-1.5.2-2,.6c-.5.4-.8.8-1,1.3l-3.3-.5c.3-.9.7-1.7,1.3-2.3.6-.6,1.3-1.1,2.2-1.4.9-.3,1.8-.5,2.8-.5s1.4,0,2.1.3c.7.2,1.4.4,1.9.8.6.4,1.1.9,1.4,1.6.4.7.5,1.5.5,2.5v9.9h-3.4v-2h-.1c-.2.4-.5.8-.9,1.2-.4.4-.9.6-1.4.9-.6.2-1.3.3-2,.3h0ZM52.4,44.7c.7,0,1.3-.1,1.8-.4.5-.3.9-.7,1.2-1.1s.4-1,.4-1.5v-1.7c-.1,0-.3.2-.6.3-.3,0-.6.1-.9.2-.3,0-.6.1-1,.2-.3,0-.6,0-.8.1-.5,0-1,.2-1.4.3-.4.2-.7.4-1,.7-.2.3-.4.7-.4,1.1,0,.6.2,1.1.7,1.5.5.3,1.1.5,1.8.5Z"/>
      <path class="title" d="M64.5,30c-.6,0-1-.2-1.4-.6-.4-.4-.6-.8-.6-1.3s.2-1,.6-1.3c.4-.4.9-.6,1.4-.6s1,.2,1.4.6c.4.4.6.8.6,1.3s-.2,1-.6,1.3c-.4.4-.9.6-1.4.6ZM62.7,46.9v-14.8h3.5v14.8h-3.5Z"/>
      <path class="title" d="M73.3,38.2v8.7h-3.5v-14.8h3.3v2.5h.2c.3-.8.9-1.5,1.6-2,.8-.5,1.7-.7,2.8-.7s1.9.2,2.7.7c.8.4,1.4,1.1,1.8,1.9.4.8.6,1.8.6,3v9.4h-3.5v-8.9c0-1-.3-1.8-.8-2.3-.5-.6-1.2-.8-2.1-.8s-1.2.1-1.6.4c-.5.3-.8.7-1.1,1.2-.3.5-.4,1.1-.4,1.8h0Z"/>
      <path class="title" d="M89.3,46.9l-4.2-14.8h3.6l2.6,10.4h.1l2.7-10.4h3.5l2.7,10.4h.1l2.6-10.4h3.6l-4.2,14.8h-3.6l-2.8-10h-.2l-2.8,10h-3.7Z"/>
      <path class="title" d="M121.8,39.4c0-1.3-.2-2.4-.5-3.4-.4-.9-.9-1.7-1.5-2.3-.6-.6-1.3-1.1-2.2-1.4-.8-.3-1.7-.4-2.6-.4-1.4,0-2.6.3-3.7,1-1.1.6-1.9,1.5-2.4,2.7-.6,1.2-.9,2.5-.9,4s.3,2.9.9,4c.6,1.1,1.4,2,2.5,2.6,1.1.6,2.4.9,3.8.9s2.2-.2,3.1-.5c.9-.4,1.6-.8,2.2-1.5.6-.6,1-1.4,1.2-2.3l-3.3-.4c-.2.4-.4.8-.7,1.1-.3.3-.7.5-1.1.6-.4.1-.9.2-1.4.2-.8,0-1.4-.2-2-.5-.6-.3-1-.8-1.3-1.4-.3-.6-.5-1.3-.5-2.1h10.3v-1.1h0ZM111.5,38.1c0-.6.2-1.1.5-1.6.3-.6.7-1,1.3-1.4.5-.3,1.2-.5,1.9-.5s1.3.2,1.8.5c.5.3.9.7,1.2,1.2.3.5.4,1.1.4,1.8,0,0-7,0-7,0Z"/>
      <path class="title" d="M124.7,46.9v-19.8h3.5v7.4h.1c.2-.4.4-.7.8-1.2.3-.4.8-.8,1.3-1.1.6-.3,1.3-.4,2.1-.4s2.2.3,3.1.9c.9.6,1.7,1.4,2.2,2.6.5,1.1.8,2.5.8,4.2s-.3,3-.8,4.2c-.5,1.1-1.3,2-2.2,2.6s-2,.9-3.1.9-1.6-.1-2.1-.4c-.6-.3-1-.6-1.3-1-.3-.4-.6-.8-.8-1.1h-.2v2.3h-3.4ZM128.1,39.5c0,1,.1,1.8.4,2.5.3.7.7,1.3,1.2,1.7.5.4,1.1.6,1.9.6s1.4-.2,1.9-.6.9-1,1.2-1.7c.3-.7.4-1.6.4-2.5s-.1-1.7-.4-2.5c-.3-.7-.7-1.3-1.2-1.7-.5-.4-1.2-.6-2-.6s-1.4.2-1.9.6c-.5.4-.9.9-1.2,1.7-.3.7-.4,1.5-.4,2.5Z"/>
    </g>
    <g id="chainweb-evm-logo-evm-text">
      <path class="title" d="M148.6,46.9v-19.8h12.9v3h-9.3v5.4h8.6v3h-8.6v5.4h9.4v3s-12.9,0-12.9,0Z"/>
      <path class="title" d="M167.8,27.1l5.1,15.6h.2l5.1-15.6h3.9l-7,19.8h-4.4l-7-19.8h3.9Z"/>
      <path class="title" d="M184.7,27.1h4.4l5.9,14.3h.2l5.9-14.3h4.4v19.8h-3.4v-13.6h-.2l-5.5,13.5h-2.6l-5.5-13.6h-.2v13.6h-3.4v-19.8Z"/>
    </g>
    <g id="kadena-logo-text">
      <path class="kadena" d="M9.9,22.4v-7.3h1.1v3h.2c.5-.5,1.3-1.5,2.7-3h1.5c-.5.6-1.6,1.8-3.3,3.6.6.6,1.7,1.8,3.4,3.7h-1.5c-.5-.5-1.4-1.5-2.8-3.1h-.2v3.1h-1.1,0Z"/>
      <path class="kadena" d="M15.7,22.4c.3-1.2,1-3.6,2.1-7.3h2c.3,1.2,1,3.6,2.1,7.3h-1.2c0-.3-.2-.9-.5-1.7h-2.8c0,.3-.2.9-.5,1.7h-1.2ZM17.7,19.6h2.3c-.2-.6-.5-1.9-1-3.8h-.2c-.2.6-.5,1.9-1,3.8h0Z"/>
      <path class="kadena" d="M22.5,22.4v-7.3h2.9c1,0,1.7.2,2.2.7.5.5.8,1.2.8,2.2v1.4c0,1-.3,1.7-.8,2.2-.5.5-1.2.7-2.2.7h-2.9s0,0,0,0ZM23.7,21.3h1.8c.6,0,1.1-.2,1.4-.5.3-.3.5-.8.5-1.4v-1.4c0-.6-.2-1.1-.5-1.4-.3-.3-.8-.5-1.4-.5h-1.8s0,5.2,0,5.2Z"/>
      <path class="kadena" d="M29.7,22.4v-7.3h4.6v1h-3.4v2.1h3.2v1h-3.2v2.1h3.5v1h-4.6s0,0,0,0Z"/>
      <path class="kadena" d="M35.5,22.4v-7.3h2.2c.3,1.1,1,3.3,2,6.5h.2v-6.5h1.1v7.3h-2.2c-.3-1.1-1-3.3-2-6.5h-.2v6.5h-1.1Z"/>
      <path class="kadena" d="M41.8,22.4c.3-1.2,1-3.6,2.1-7.3h2c.3,1.2,1,3.6,2.1,7.3h-1.2c0-.3-.2-.9-.5-1.7h-2.8c0,.3-.2.9-.5,1.7,0,0-1.2,0-1.2,0ZM43.7,19.6h2.3c-.2-.6-.5-1.9-1-3.8h-.2c-.2.6-.5,1.9-1,3.8h0Z"/>
    </g>
  </g>
</svg>
