<?xml version="1.0" encoding="UTF-8"?>
<svg id="a"
  xmlns="http://www.w3.org/2000/svg" width="500" height="500" viewBox="0 0 500 500">
  <defs>
    <style>
      .b{fill:#283240;}.b,.c,.d,.e,.f,.g,.h,.i,.j,.k{stroke:#f2f2f2;stroke-miterlimit:10;stroke-width:.25px;}.c{fill:#3c635b;}.d{fill:#489688;}.e{fill:#75b5a6;}.f{fill:#0d1620;}.g{fill:#152230;}.h{fill:#4d5a6c;}.i{fill:#252c33;}.j{fill:#3c495c;}.k{fill:#4e5b6d;}

      .b, .c, .d, .e, .f, .g, .h, .i, .j, .k {
        animation: fadeInOut 3s ease-in-out infinite;
      }

      .c { animation-delay: 0.2s; }
      .d { animation-delay: 0.4s; }
      .e { animation-delay: 0.6s; }
      .f { animation-delay: 0.8s; }
      .g { animation-delay: 1.0s; }
      .h { animation-delay: 1.2s; }
      .i { animation-delay: 1.4s; }
      .j { animation-delay: 1.6s; }
      .k { animation-delay: 1.8s; }

      @keyframes fadeInOut {
        0%, 100% { opacity: 0.3; }
        50% { opacity: 1; }
      }
    </style>
  </defs>
  <polygon class="i" points="395.4197 277.9948 395.4197 333.9729 346.9504 361.9503 346.9504 305.9838 395.4197 277.9948"/>
  <polygon class="j" points="346.9504 305.9838 346.9504 361.9503 298.4693 333.9729 298.4693 277.9948 346.9504 305.9838"/>
  <polygon class="b" points="395.4197 277.9948 346.9504 305.9838 298.4693 277.9948 346.9504 250.0058 395.4197 277.9948"/>
  <polygon class="f" points="201.5424 277.9833 201.5424 333.9614 153.073 361.9388 153.073 305.9723 201.5424 277.9833"/>
  <polygon class="k" points="153.073 305.9723 153.073 361.9388 104.592 333.9614 104.592 277.9833 153.073 305.9723"/>
  <polygon class="b" points="201.5424 277.9833 153.073 305.9723 104.592 277.9833 153.073 249.9943 201.5424 277.9833"/>
  <polygon class="f" points="298.481 110.0722 298.481 166.0503 250.0117 194.0277 250.0117 138.0613 298.481 110.0722"/>
  <polygon class="j" points="250.0117 138.0613 250.0117 194.0277 201.5307 166.0503 201.5307 110.0722 250.0117 138.0613"/>
  <polygon class="b" points="298.481 110.0722 250.0117 138.0613 201.5307 110.0722 250.0117 82.0832 298.481 110.0722"/>
  <polygon class="c" points="298.481 54.0941 298.481 110.0722 250.0117 138.0496 250.0117 82.0832 298.481 54.0941"/>
  <polygon class="e" points="250.0117 82.0832 250.0117 138.0496 201.5307 110.0722 201.5307 54.0941 250.0117 82.0832"/>
  <polygon class="d" points="298.481 54.0941 250.0117 82.0832 201.5307 54.0941 250.0117 26.1051 298.481 54.0941"/>
  <polygon class="f" points="250.0117 138.0613 250.0117 194.0394 201.5424 222.0168 201.5424 166.0503 250.0117 138.0613"/>
  <polygon class="k" points="201.5424 166.0503 201.5424 222.0168 153.0613 194.0394 153.0613 138.0613 201.5424 166.0503"/>
  <polygon class="b" points="250.0117 138.0613 201.5424 166.0503 153.0613 138.0613 201.5424 110.0723 250.0117 138.0613"/>
  <polygon class="f" points="153.0613 138.0496 153.0613 194.0277 104.592 222.0052 104.592 166.0387 153.0613 138.0496"/>
  <polygon class="k" points="104.592 166.0387 104.592 222.0052 56.111 194.0277 56.111 138.0496 104.592 166.0387"/>
  <polygon class="b" points="153.0613 138.0496 104.592 166.0387 56.111 138.0496 104.592 110.0606 153.0613 138.0496"/>
  <polygon class="f" points="201.5424 222.0168 201.5424 277.9949 153.073 305.9723 153.073 250.0059 201.5424 222.0168"/>
  <polygon class="k" points="153.073 250.0059 153.073 305.9723 104.592 277.9949 104.592 222.0168 153.073 250.0059"/>
  <polygon class="b" points="201.5424 222.0168 153.073 250.0059 104.592 222.0168 153.073 194.0278 201.5424 222.0168"/>
  <polygon class="f" points="201.5424 166.0387 201.5424 222.0168 153.073 249.9942 153.073 194.0277 201.5424 166.0387"/>
  <polygon class="k" points="153.073 194.0277 153.073 249.9942 104.592 222.0168 104.592 166.0387 153.073 194.0277"/>
  <polygon class="b" points="201.5424 166.0387 153.073 194.0277 104.592 166.0387 153.073 138.0497 201.5424 166.0387"/>
  <polygon class="i" points="443.889 138.0611 443.889 194.0392 395.4197 222.0167 395.4197 166.0502 443.889 138.0611"/>
  <polygon class="j" points="395.4197 166.0502 395.4197 222.0167 346.9387 194.0392 346.9387 138.0611 395.4197 166.0502"/>
  <polygon class="b" points="443.889 138.0611 395.4197 166.0502 346.9387 138.0611 395.4197 110.0721 443.889 138.0611"/>
  <polygon class="i" points="346.9387 138.0611 346.9387 194.0392 298.4693 222.0167 298.4693 166.0502 346.9387 138.0611"/>
  <polygon class="j" points="298.4693 166.0502 298.4693 222.0167 249.9883 194.0392 249.9883 138.0611 298.4693 166.0502"/>
  <polygon class="b" points="346.9387 138.0611 298.4693 166.0502 249.9883 138.0611 298.4693 110.0721 346.9387 138.0611"/>
  <polygon class="i" points="298.481 389.9394 298.481 445.9175 250.0117 473.8949 250.0117 417.9284 298.481 389.9394"/>
  <polygon class="h" points="250.0117 417.9284 250.0117 473.8949 201.5307 445.9175 201.5307 389.9394 250.0117 417.9284"/>
  <polygon class="g" points="298.481 389.9394 250.0117 417.9284 201.5307 389.9394 250.0117 361.9504 298.481 389.9394"/>
  <polygon class="i" points="250 305.9838 250 361.9619 201.5307 389.9394 201.5307 333.9729 250 305.9838"/>
  <polygon class="h" points="201.5307 333.9729 201.5307 389.9394 153.0496 361.9619 153.0496 305.9838 201.5307 333.9729"/>
  <polygon class="g" points="250 305.9838 201.5307 333.9729 153.0496 305.9838 201.5307 277.9948 250 305.9838"/>
  <polygon class="c" points="153.0613 305.9723 153.0613 361.9504 104.592 389.9278 104.592 333.9613 153.0613 305.9723"/>
  <polygon class="e" points="104.592 333.9613 104.592 389.9278 56.111 361.9504 56.111 305.9723 104.592 333.9613"/>
  <polygon class="d" points="153.0613 305.9723 104.592 333.9613 56.111 305.9723 104.592 277.9833 153.0613 305.9723"/>
  <polygon class="i" points="346.9504 305.9838 346.9504 361.9619 298.481 389.9394 298.481 333.9729 346.9504 305.9838"/>
  <polygon class="h" points="298.481 333.9729 298.481 389.9394 250 361.9619 250 305.9838 298.481 333.9729"/>
  <polygon class="g" points="346.9504 305.9838 298.481 333.9729 250 305.9838 298.481 277.9948 346.9504 305.9838"/>
  <polygon class="c" points="443.889 305.9954 443.889 361.9735 395.4197 389.9509 395.4197 333.9844 443.889 305.9954"/>
  <polygon class="e" points="395.4197 333.9844 395.4197 389.9509 346.9387 361.9735 346.9387 305.9954 395.4197 333.9844"/>
  <polygon class="d" points="443.889 305.9954 395.4197 333.9844 346.9387 305.9954 395.4197 278.0064 443.889 305.9954"/>
  <polygon class="i" points="395.4197 222.0167 395.4197 277.9948 346.9504 305.9722 346.9504 250.0057 395.4197 222.0167"/>
  <polygon class="j" points="346.9504 250.0057 346.9504 305.9722 298.4693 277.9948 298.4693 222.0167 346.9504 250.0057"/>
  <polygon class="b" points="395.4197 222.0167 346.9504 250.0057 298.4693 222.0167 346.9504 194.0277 395.4197 222.0167"/>
  <polygon class="i" points="395.4197 166.0502 395.4197 222.0283 346.9504 250.0057 346.9504 194.0392 395.4197 166.0502"/>
  <polygon class="j" points="346.9504 194.0392 346.9504 250.0057 298.4693 222.0283 298.4693 166.0502 346.9504 194.0392"/>
  <polygon class="b" points="395.4197 166.0502 346.9504 194.0392 298.4693 166.0502 346.9504 138.0612 395.4197 166.0502"/>
  <polygon class="i" points="298.481 333.9612 298.481 389.9394 250.0117 417.9168 250.0117 361.9503 298.481 333.9612"/>
  <polygon class="h" points="250.0117 361.9503 250.0117 417.9168 201.5307 389.9394 201.5307 333.9612 250.0117 361.9503"/>
  <polygon class="g" points="298.481 333.9612 250.0117 361.9503 201.5307 333.9612 250.0117 305.9723 298.481 333.9612"/>
</svg>
