<svg width="24" height="24" viewBox="0 0 24 24" fill="none" xmlns="http://www.w3.org/2000/svg">
<g clip-path="url(#clip0_244_1527)">
<path d="M6.11255 18.525L8.73755 17.25L8.17505 20.025L6.11255 18.525Z" fill="#131E2B"/>
<path d="M9.22495 14.775L2.13745 15.6L2.96245 13.0125H9.59995L9.26245 14.775H9.22495Z" fill="#131E2B"/>
<path d="M10.7626 12.075L9.9751 10.65L10.7626 12.075Z" fill="#131E2B"/>
<path d="M9.2251 9.22498L9.9751 10.65L9.2251 9.22498Z" fill="#131E2B"/>
<path d="M15.825 19.9875L15.2625 17.2125L17.8875 18.4875L15.825 19.9875Z" fill="#131E2B"/>
<path d="M14.3999 13.0125H21.0374L21.8624 15.6L14.7749 14.775L14.4374 13.0125H14.3999Z" fill="#131E2B"/>
<path d="M13.2375 12.075L13.9875 10.65L13.2375 12.075Z" fill="#131E2B"/>
<path d="M14.7751 9.22498L13.9875 10.65L14.7751 9.22498Z" fill="#131E2B"/>
<path d="M10.7625 3.97498V12.075L11.025 12.525L12 12.1875L12.9749 12.525L13.2374 12.075V3.97498H10.7625Z" fill="#131E2B"/>
<path d="M14.7751 9.22501L18.9001 6.45001L19.6876 8.88751L14.4001 13.0125L12.9751 12.525L14.7751 9.22501Z" fill="#131E2B"/>
<path d="M9.225 9.22501L5.1 6.45001L4.3125 8.88751L9.5625 13.0125L11.025 12.525L9.225 9.22501Z" fill="#131E2B"/>
</g>
<defs>
<clipPath id="clip0_244_1527">
<rect width="24" height="24" fill="white"/>
</clipPath>
</defs>
</svg>
