<?xml version="1.0" standalone="no"?>
<!DOCTYPE svg PUBLIC "-//W3C//DTD SVG 20010904//EN"
 "http://www.w3.org/TR/2001/REC-SVG-20010904/DTD/svg10.dtd">
<svg version="1.0" xmlns="http://www.w3.org/2000/svg"
 width="292.000000pt" height="292.000000pt" viewBox="0 0 292.000000 292.000000"
 preserveAspectRatio="xMidYMid meet">
<metadata>
Created by potrace 1.14, written by Peter Selinger 2001-2017
</metadata>
<g transform="translate(0.000000,292.000000) scale(0.100000,-0.100000)"
fill="#000000" stroke="none">
<path d="M1145 2896 c-433 -72 -794 -336 -989 -722 -51 -101 -97 -232 -122
-349 -24 -111 -24 -378 -1 -497 59 -296 206 -556 432 -758 33 -30 81 -79 107
-110 136 -159 363 -311 568 -380 191 -64 453 -87 643 -56 316 52 615 219 810
453 216 261 319 542 318 873 0 215 -45 409 -138 594 -39 78 -111 196 -119 196
-1 0 15 -39 38 -86 22 -47 53 -138 70 -202 27 -102 31 -139 35 -292 6 -203 -7
-304 -62 -467 -69 -206 -168 -366 -325 -523 -195 -196 -422 -317 -694 -372
-129 -26 -351 -28 -482 -5 -273 49 -527 182 -720 377 -349 351 -475 848 -338
1328 34 118 129 310 205 412 282 382 761 594 1218 541 88 -11 221 -39 306 -65
11 -4 0 3 -25 15 -64 30 -173 65 -260 84 -102 22 -370 28 -475 11z"/>
<path d="M890 1520 l0 -670 160 0 160 0 0 226 0 225 57 60 c31 32 59 59 64 59
4 0 91 -128 194 -285 l188 -285 189 0 c149 0 188 3 182 13 -4 6 -126 188 -270
402 l-262 390 254 260 c139 143 254 263 254 268 0 4 -85 7 -189 7 l-188 0 -90
-92 c-50 -51 -152 -159 -229 -240 -76 -82 -142 -148 -146 -148 -5 0 -8 108 -8
240 l0 240 -160 0 -160 0 0 -670z"/>
</g>
</svg>
