<svg width="351" height="200" viewBox="0 0 351 200" fill="transparent" xmlns="http://www.w3.org/2000/svg" xmlns:xlink="http://www.w3.org/1999/xlink">
<mask id="path-1-inside-1_2765_302" fill="white">
<path fill-rule="evenodd" clip-rule="evenodd" d="M289 5.125C289 2.29454 286.705 0 283.875 0H8C3.58172 0 0 3.58172 0 8V192C0 196.418 3.58172 200 8 200H284.875C287.153 200 289 198.153 289 195.875C289 193.666 290.791 191.875 293 191.875C295.209 191.875 297 193.666 297 195.875C297 198.153 298.847 200 301.125 200H343C347.418 200 351 196.418 351 192V138.735C351 134.415 347.512 130.982 343.363 129.781C330.445 126.041 321 114.123 321 100C321 85.8766 330.445 73.9592 343.363 70.2192C347.512 69.0179 351 65.585 351 61.2653V8C351 3.58172 347.418 0 343 0H302.125C299.295 0 297 2.29454 297 5.125C297 7.33414 295.209 9.125 293 9.125C290.791 9.125 289 7.33414 289 5.125ZM297 33.125C297 30.9159 295.209 29.125 293 29.125C290.791 29.125 289 30.9159 289 33.125V59.375C289 61.5841 290.791 63.375 293 63.375C295.209 63.375 297 61.5841 297 59.375V33.125ZM297 87.375C297 85.1659 295.209 83.375 293 83.375C290.791 83.375 289 85.1659 289 87.375V113.625C289 115.834 290.791 117.625 293 117.625C295.209 117.625 297 115.834 297 113.625V87.375ZM297 141.625C297 139.416 295.209 137.625 293 137.625C290.791 137.625 289 139.416 289 141.625V167.875C289 170.084 290.791 171.875 293 171.875C295.209 171.875 297 170.084 297 167.875V141.625Z"/>
</mask>
<path fill-rule="evenodd" clip-rule="evenodd" d="M289 5.125C289 2.29454 286.705 0 283.875 0H8C3.58172 0 0 3.58172 0 8V192C0 196.418 3.58172 200 8 200H284.875C287.153 200 289 198.153 289 195.875C289 193.666 290.791 191.875 293 191.875C295.209 191.875 297 193.666 297 195.875C297 198.153 298.847 200 301.125 200H343C347.418 200 351 196.418 351 192V138.735C351 134.415 347.512 130.982 343.363 129.781C330.445 126.041 321 114.123 321 100C321 85.8766 330.445 73.9592 343.363 70.2192C347.512 69.0179 351 65.585 351 61.2653V8C351 3.58172 347.418 0 343 0H302.125C299.295 0 297 2.29454 297 5.125C297 7.33414 295.209 9.125 293 9.125C290.791 9.125 289 7.33414 289 5.125ZM297 33.125C297 30.9159 295.209 29.125 293 29.125C290.791 29.125 289 30.9159 289 33.125V59.375C289 61.5841 290.791 63.375 293 63.375C295.209 63.375 297 61.5841 297 59.375V33.125ZM297 87.375C297 85.1659 295.209 83.375 293 83.375C290.791 83.375 289 85.1659 289 87.375V113.625C289 115.834 290.791 117.625 293 117.625C295.209 117.625 297 115.834 297 113.625V87.375ZM297 141.625C297 139.416 295.209 137.625 293 137.625C290.791 137.625 289 139.416 289 141.625V167.875C289 170.084 290.791 171.875 293 171.875C295.209 171.875 297 170.084 297 167.875V141.625Z" fill="url(#pattern0)"/>
<path d="M343.363 129.781L344.475 125.939L343.363 129.781ZM343.363 70.2192L342.25 66.3769L343.363 70.2192ZM283.875 -4H8V4H283.875V-4ZM-4 8V192H4V8H-4ZM8 204H284.875V196H8V204ZM293 195.875V187.875C288.582 187.875 285 191.457 285 195.875H293ZM293 195.875H301C301 191.457 297.418 187.875 293 187.875V195.875ZM301.125 204H343V196H301.125V204ZM355 192V138.735H347V192H355ZM344.475 125.939C333.222 122.681 325 112.295 325 100H317C317 115.952 327.668 129.401 342.25 133.623L344.475 125.939ZM325 100C325 87.7048 333.222 77.3195 344.475 74.0614L342.25 66.3769C327.668 70.5988 317 84.0484 317 100H325ZM355 61.2653V8H347V61.2653H355ZM343 -4H302.125V4H343V-4ZM293 5.125V5.125V13.125C297.418 13.125 301 9.54328 301 5.125H293ZM293 5.125H285C285 9.54328 288.582 13.125 293 13.125V5.125ZM293 33.125H301C301 28.7067 297.418 25.125 293 25.125V33.125ZM293 33.125V25.125C288.582 25.125 285 28.7067 285 33.125H293ZM293 59.375V33.125H285V59.375H293ZM293 59.375H285C285 63.7933 288.582 67.375 293 67.375V59.375ZM293 59.375V67.375C297.418 67.375 301 63.7933 301 59.375H293ZM293 33.125V59.375H301V33.125H293ZM293 87.375H301C301 82.9567 297.418 79.375 293 79.375V87.375ZM293 87.375V79.375C288.582 79.375 285 82.9567 285 87.375H293ZM293 113.625V87.375H285V113.625H293ZM293 113.625H285C285 118.043 288.582 121.625 293 121.625V113.625ZM293 113.625V121.625C297.418 121.625 301 118.043 301 113.625H293ZM293 87.375V113.625H301V87.375H293ZM293 141.625H301C301 137.207 297.418 133.625 293 133.625V141.625ZM293 141.625V133.625C288.582 133.625 285 137.207 285 141.625H293ZM293 167.875V141.625H285V167.875H293ZM293 167.875H285C285 172.293 288.582 175.875 293 175.875V167.875ZM293 167.875V175.875C297.418 175.875 301 172.293 301 167.875H293ZM293 141.625V167.875H301V141.625H293ZM355 138.735C355 132.086 349.744 127.464 344.475 125.939L342.25 133.623C345.28 134.5 347 136.744 347 138.735H355ZM343 204C349.627 204 355 198.627 355 192H347C347 194.209 345.209 196 343 196V204ZM284.875 204C289.362 204 293 200.362 293 195.875H285C285 195.9 284.996 195.913 284.992 195.922C284.987 195.934 284.978 195.949 284.963 195.963C284.949 195.978 284.934 195.987 284.922 195.992C284.913 195.996 284.9 196 284.875 196V204ZM293 195.875C293 200.362 296.638 204 301.125 204V196C301.1 196 301.087 195.996 301.078 195.992C301.066 195.987 301.051 195.978 301.037 195.963C301.022 195.949 301.013 195.934 301.008 195.922C301.004 195.913 301 195.9 301 195.875H293ZM302.125 -4C297.085 -4 293 0.0854027 293 5.125H301C301 4.50368 301.504 4 302.125 4V-4ZM-4 192C-4 198.627 1.37258 204 8 204V196C5.79086 196 4 194.209 4 192H-4ZM355 8C355 1.37258 349.627 -4 343 -4V4C345.209 4 347 5.79086 347 8H355ZM8 -4C1.37258 -4 -4 1.37259 -4 8H4C4 5.79086 5.79086 4 8 4V-4ZM344.475 74.0614C349.744 72.536 355 67.9135 355 61.2653H347C347 63.2564 345.28 65.4997 342.25 66.3769L344.475 74.0614ZM283.875 4C284.496 4 285 4.50368 285 5.125H293C293 0.0854016 288.915 -4 283.875 -4V4Z" fill="url(#paint0_linear_2765_302)" mask="url(#path-1-inside-1_2765_302)"/>
<defs>

<linearGradient id="paint0_linear_2765_302" x1="175.5" y1="0" x2="175.5" y2="123" gradientUnits="userSpaceOnUse">
<stop stop-color="white"/>
<stop offset="1" stop-color="white" stop-opacity="0"/>
</linearGradient>

</defs>
</svg>
