<svg width="241" height="119" viewBox="0 0 241 119" fill="none" xmlns="http://www.w3.org/2000/svg">
<path d="M77.2839 73.0125V45.9846H81.4204V57.2174H82.0599C83.741 55.3579 87.0868 51.6145 92.103 45.9846H97.5184C95.4866 48.2225 91.4392 52.6578 85.3707 59.2904C87.4754 61.577 91.6766 66.1501 97.9691 73.0125H92.3647C90.6594 71.1016 87.2244 67.2826 82.0599 61.5527H81.4204V73.0125H77.2839Z" fill="#F0EAE6"/>
<path d="M99.0959 73.0125C100.375 68.5151 102.933 59.504 106.767 45.9846H114.101C115.38 50.4821 117.938 59.4932 121.772 73.0125H117.485C117.183 71.9584 116.594 69.834 115.717 66.642H105.151C104.876 67.6961 104.285 69.8205 103.384 73.0125H99.0959ZM106.203 62.796H114.665C114.012 60.4094 112.709 55.6714 110.755 48.5847H110.116C109.463 50.9469 108.16 55.6849 106.206 62.796H106.203Z" fill="#F0EAE6"/>
<path d="M124.41 73.0125V45.9846H135.203C138.789 45.9846 141.533 46.9036 143.438 48.7361C145.368 50.5713 146.334 53.3227 146.334 56.9904V62.0419C146.334 65.7366 145.368 68.488 143.438 70.2962C141.533 72.1044 138.786 73.0098 135.203 73.0098H124.41V73.0125ZM128.622 69.2421H135.241C137.572 69.2421 139.302 68.6529 140.432 67.4718C141.56 66.2663 142.124 64.4933 142.124 62.1554V56.839C142.124 54.4768 141.56 52.7173 140.432 51.5605C139.304 50.4064 137.575 49.828 135.241 49.828H128.622V69.2421Z" fill="#F0EAE6"/>
<path d="M151.034 73.0125V45.9846H167.995V49.7928H155.17V57.5201H166.943V61.3283H155.17V69.2448H168.184V73.0152H151.034V73.0125Z" fill="#F0EAE6"/>
<path d="M172.551 73.0125V45.9846H180.562C181.765 50.0307 184.196 58.1093 187.858 70.2232H188.498V45.9846H192.596V73.0125H184.585C183.382 68.9664 180.95 60.8743 177.289 48.7361H176.649V73.0125H172.551Z" fill="#F0EAE6"/>
<path d="M196.239 73.0125C197.518 68.5151 200.076 59.504 203.91 45.9846H211.244C212.523 50.4821 215.081 59.4932 218.915 73.0125H214.628C214.326 71.9584 213.737 69.834 212.861 66.642H202.294C202.019 67.6961 201.428 69.8205 200.527 73.0125H196.239ZM203.346 62.796H211.808C211.155 60.4094 209.852 55.6714 207.898 48.5847H207.259C206.606 50.9469 205.303 55.6849 203.349 62.796H203.346Z" fill="#F0EAE6"/>
<path d="M69.2676 82.2032H52.8242L52.8134 82.1951L52.6839 82.0951L32.3064 66.1892L40.6468 59.4998L69.13 82.0951L69.2676 82.2032Z" fill="#4A9079"/>
<path d="M69.2676 36.7964H52.8242L52.8134 36.8045L52.6839 36.9045L32.3064 52.8104L40.6468 59.4998L69.13 36.9045L69.2676 36.7964Z" fill="#4A9079"/>
<path d="M32.309 60.5079V66.173V66.1919L32.3117 82.0951V82.2032L32.3009 82.1951L32.1741 82.0951L22.2579 74.257L22.2336 74.2381L22.0906 74.1273V44.8723L22.2336 44.7615L22.2579 44.7426L32.1741 36.9045L32.3009 36.8045L32.3117 36.7964V36.9045L32.309 52.8077V52.8266V59.4998V60.5079Z" fill="#4A9079"/>
<path d="M22.0897 59.4998H22.0844V60.5079H22.0897V59.4998Z" fill="#4A9079"/>
<path d="M32.3091 59.4998H32.3064V60.5079H32.3091V59.4998Z" fill="#4A9079"/>
<path d="M136.007 94V84.3429H139.842C140.431 84.3429 140.955 84.4625 141.415 84.7016C141.884 84.9315 142.247 85.2626 142.505 85.6949C142.772 86.118 142.905 86.6284 142.905 87.2262V87.4056C142.905 88.0034 142.767 88.5184 142.491 88.9507C142.224 89.383 141.861 89.7141 141.401 89.944C140.941 90.1739 140.422 90.2889 139.842 90.2889H137.497V94H136.007ZM137.497 88.9369H139.691C140.215 88.9369 140.633 88.799 140.946 88.523C141.259 88.2471 141.415 87.87 141.415 87.3918V87.2538C141.415 86.7664 141.259 86.3847 140.946 86.1088C140.633 85.8328 140.215 85.6949 139.691 85.6949H137.497V88.9369ZM144.32 94V84.3429H148.376C148.973 84.3429 149.498 84.4487 149.948 84.6602C150.408 84.8625 150.762 85.1568 151.011 85.5431C151.268 85.9294 151.397 86.3893 151.397 86.9227V87.0745C151.397 87.6815 151.25 88.1689 150.955 88.5368C150.67 88.8955 150.321 89.1485 149.907 89.2956V89.5163C150.256 89.5347 150.537 89.6543 150.749 89.875C150.96 90.0866 151.066 90.3947 151.066 90.7994V94H149.562V91.0063C149.562 90.758 149.498 90.5602 149.369 90.4131C149.24 90.2659 149.033 90.1923 148.748 90.1923H145.81V94H144.32ZM145.81 88.8403H148.21C148.744 88.8403 149.157 88.707 149.452 88.4403C149.746 88.1643 149.893 87.7919 149.893 87.3228V87.2124C149.893 86.7434 149.746 86.3755 149.452 86.1088C149.167 85.8328 148.753 85.6949 148.21 85.6949H145.81V88.8403ZM156.665 94.1931C155.478 94.1931 154.536 93.862 153.837 93.1998C153.138 92.5284 152.788 91.5627 152.788 90.3027V88.0402C152.788 86.7802 153.138 85.8191 153.837 85.1568C154.536 84.4854 155.478 84.1497 156.665 84.1497C157.851 84.1497 158.794 84.4854 159.493 85.1568C160.201 85.8191 160.555 86.7802 160.555 88.0402V90.3027C160.555 91.5627 160.201 92.5284 159.493 93.1998C158.794 93.862 157.851 94.1931 156.665 94.1931ZM156.665 92.8549C157.428 92.8549 158.017 92.6342 158.431 92.1927C158.844 91.7421 159.051 91.1305 159.051 90.3579V87.985C159.051 87.2124 158.844 86.6054 158.431 86.1639C158.017 85.7133 157.428 85.4879 156.665 85.4879C155.92 85.4879 155.336 85.7133 154.913 86.1639C154.49 86.6054 154.278 87.2124 154.278 87.985V90.3579C154.278 91.1305 154.49 91.7421 154.913 92.1927C155.336 92.6342 155.92 92.8549 156.665 92.8549ZM165.947 94.1931C164.761 94.1931 163.818 93.862 163.119 93.1998C162.42 92.5284 162.071 91.5627 162.071 90.3027V88.0402C162.071 86.7802 162.42 85.8191 163.119 85.1568C163.818 84.4854 164.761 84.1497 165.947 84.1497C167.134 84.1497 168.076 84.4854 168.775 85.1568C169.484 85.8191 169.838 86.7802 169.838 88.0402V90.3027C169.838 91.5627 169.484 92.5284 168.775 93.1998C168.076 93.862 167.134 94.1931 165.947 94.1931ZM165.947 92.8549C166.711 92.8549 167.299 92.6342 167.713 92.1927C168.127 91.7421 168.334 91.1305 168.334 90.3579V87.985C168.334 87.2124 168.127 86.6054 167.713 86.1639C167.299 85.7133 166.711 85.4879 165.947 85.4879C165.202 85.4879 164.618 85.7133 164.195 86.1639C163.772 86.6054 163.561 87.2124 163.561 87.985V90.3579C163.561 91.1305 163.772 91.7421 164.195 92.1927C164.618 92.6342 165.202 92.8549 165.947 92.8549ZM171.602 94V84.3429H177.561V85.6949H173.091V88.4817H177.203V89.8336H173.091V94H171.602ZM186.156 94.1931C184.97 94.1931 184.027 93.862 183.328 93.1998C182.629 92.5284 182.279 91.5627 182.279 90.3027V88.0402C182.279 86.7802 182.629 85.8191 183.328 85.1568C184.027 84.4854 184.97 84.1497 186.156 84.1497C187.342 84.1497 188.285 84.4854 188.984 85.1568C189.692 85.8191 190.046 86.7802 190.046 88.0402V90.3027C190.046 91.5627 189.692 92.5284 188.984 93.1998C188.285 93.862 187.342 94.1931 186.156 94.1931ZM186.156 92.8549C186.919 92.8549 187.508 92.6342 187.922 92.1927C188.336 91.7421 188.543 91.1305 188.543 90.3579V87.985C188.543 87.2124 188.336 86.6054 187.922 86.1639C187.508 85.7133 186.919 85.4879 186.156 85.4879C185.411 85.4879 184.827 85.7133 184.404 86.1639C183.981 86.6054 183.769 87.2124 183.769 87.985V90.3579C183.769 91.1305 183.981 91.7421 184.404 92.1927C184.827 92.6342 185.411 92.8549 186.156 92.8549ZM191.81 94V84.3429H197.77V85.6949H193.3V88.4817H197.411V89.8336H193.3V94H191.81ZM206.351 94.1931C205.588 94.1931 204.93 94.0552 204.378 93.7793C203.836 93.5033 203.413 93.1079 203.109 92.5928C202.815 92.0686 202.668 91.434 202.668 90.689V84.3429H204.171V90.7304C204.171 91.411 204.36 91.9352 204.737 92.3031C205.114 92.671 205.652 92.8549 206.351 92.8549C207.05 92.8549 207.588 92.671 207.965 92.3031C208.342 91.9352 208.531 91.411 208.531 90.7304V84.3429H210.021V90.689C210.021 91.434 209.874 92.0686 209.579 92.5928C209.285 93.1079 208.862 93.5033 208.31 93.7793C207.758 94.0552 207.105 94.1931 206.351 94.1931ZM215.249 94.1931C214.522 94.1931 213.878 94.0644 213.317 93.8069C212.756 93.5493 212.315 93.1722 211.993 92.6756C211.68 92.1697 211.524 91.5581 211.524 90.8407V90.4958H213V90.8407C213 91.5213 213.202 92.0318 213.607 92.3721C214.021 92.7124 214.568 92.8825 215.249 92.8825C215.938 92.8825 216.458 92.74 216.808 92.4549C217.157 92.1606 217.332 91.7835 217.332 91.3236C217.332 91.0201 217.249 90.7718 217.083 90.5786C216.918 90.3855 216.683 90.2337 216.38 90.1234C216.076 90.0038 215.713 89.8934 215.29 89.7923L214.78 89.6681C214.163 89.5209 213.625 89.3416 213.165 89.1301C212.715 88.9093 212.365 88.6196 212.117 88.2609C211.869 87.9022 211.744 87.4424 211.744 86.8813C211.744 86.3111 211.882 85.8236 212.158 85.419C212.443 85.0143 212.834 84.7016 213.331 84.4809C213.828 84.2601 214.412 84.1497 215.083 84.1497C215.754 84.1497 216.352 84.2647 216.877 84.4946C217.41 84.7246 217.828 85.0649 218.132 85.5155C218.435 85.9662 218.587 86.5318 218.587 87.2124V87.7091H217.111V87.2124C217.111 86.7986 217.024 86.4629 216.849 86.2053C216.683 85.9478 216.449 85.7593 216.145 85.6397C215.842 85.5201 215.488 85.4604 215.083 85.4604C214.494 85.4604 214.035 85.5845 213.703 85.8328C213.382 86.072 213.221 86.4077 213.221 86.8399C213.221 87.1343 213.29 87.378 213.428 87.5711C213.575 87.7551 213.786 87.9068 214.062 88.0264C214.338 88.146 214.683 88.2517 215.097 88.3437L215.607 88.4679C216.233 88.6058 216.785 88.7852 217.263 89.0059C217.741 89.2174 218.118 89.5071 218.394 89.875C218.67 90.2429 218.808 90.7166 218.808 91.296C218.808 91.8754 218.661 92.3813 218.366 92.8136C218.081 93.2458 217.672 93.5861 217.139 93.8344C216.605 94.0736 215.975 94.1931 215.249 94.1931Z" fill="white"/>
</svg>
