<?xml version="1.0" standalone="no"?>
<!DOCTYPE svg PUBLIC "-//W3C//DTD SVG 20010904//EN"
 "http://www.w3.org/TR/2001/REC-SVG-20010904/DTD/svg10.dtd">
<svg version="1.0" xmlns="http://www.w3.org/2000/svg"
 width="643.000000pt" height="643.000000pt" viewBox="0 0 643.000000 643.000000"
 preserveAspectRatio="xMidYMid meet">
<metadata>
Created by potrace 1.14, written by Peter Selinger 2001-2017
</metadata>
<g transform="translate(0.000000,643.000000) scale(0.100000,-0.100000)"
fill="#000000" stroke="none">
<path d="M1895 4999 c-104 -83 -206 -163 -225 -179 -48 -38 -234 -185 -352
-277 -54 -42 -98 -79 -99 -82 -4 -25 -3 -2484 1 -2489 5 -8 59 -53 106 -90 16
-13 81 -64 144 -114 63 -49 131 -103 150 -118 19 -15 105 -83 190 -150 85 -67
164 -129 175 -138 38 -31 94 -72 98 -72 3 0 5 296 6 658 0 361 0 665 0 676 1
18 18 9 91 -51 18 -14 302 -236 350 -273 18 -14 41 -32 51 -40 10 -8 32 -26
50 -40 157 -122 287 -222 299 -233 8 -7 44 -35 80 -62 54 -41 180 -140 240
-188 8 -7 44 -35 80 -62 36 -27 70 -54 76 -60 7 -5 24 -19 40 -30 15 -11 32
-24 38 -30 6 -5 40 -32 76 -60 36 -27 70 -54 76 -60 7 -5 24 -19 40 -30 15
-11 44 -33 64 -50 21 -16 50 -40 66 -53 l28 -22 701 0 c665 0 699 1 679 18
-50 39 -501 398 -789 627 -170 135 -317 251 -325 258 -8 7 -44 35 -80 62 -35
28 -74 58 -85 68 -11 10 -67 55 -125 100 -58 45 -195 154 -306 242 -111 88
-218 174 -239 190 -21 17 -109 86 -195 155 -87 69 -172 136 -190 150 -18 14
-44 34 -57 46 l-25 21 44 34 c23 19 50 39 58 46 8 7 132 105 275 218 143 114
269 214 280 223 12 9 50 39 85 67 36 27 74 57 85 67 11 9 72 57 135 108 63 50
122 96 130 103 8 7 112 88 230 182 118 93 217 172 220 175 3 3 25 21 50 40 25
19 52 40 60 47 29 23 288 228 325 258 109 86 451 357 454 361 2 2 -310 4 -695
4 l-699 0 -190 -148 c-104 -82 -298 -232 -430 -335 -132 -103 -247 -193 -255
-200 -8 -7 -76 -59 -150 -117 -74 -58 -142 -110 -150 -117 -8 -6 -91 -71 -185
-144 -93 -73 -217 -170 -275 -215 -58 -45 -107 -81 -108 -79 -2 2 -4 308 -4
679 -1 372 -1 676 -2 676 -1 0 -86 -68 -191 -151z m280 -1284 c71 -57 73 -59
145 -116 36 -28 81 -64 100 -80 19 -15 62 -50 95 -76 33 -26 67 -55 77 -63 9
-8 57 -46 107 -85 49 -38 89 -74 87 -80 -3 -12 -689 -565 -695 -559 -3 2 -4
1096 -1 1123 0 4 13 -6 85 -64z"/>
</g>
</svg>
