<?xml version="1.0" encoding="utf-8"?>
<svg version="1.1" id="Layer_1" xmlns="http://www.w3.org/2000/svg" xmlns:xlink="http://www.w3.org/1999/xlink" x="0px" y="0px"
	 viewBox="0 0 351 66.4" style="enable-background:new 0 0 351 66.4;" xml:space="preserve">
<style type="text/css">
	.primary{fill:#311602;}
	.accent{fill:#FF880F;}
	.tagline{fill:#000000;}
</style>
<g>
	<path class="primary" d="M57.8,29.1c0,4.2-0.9,8.3-2.7,12.1c-1.7,3.8-4.3,7.2-7.5,9.9l-4.3-5.2V11.3L28.9,28.6L14.4,11.3v34.5L10.1,51
		c-3.7-3.1-6.5-7.2-8.3-11.7C0.1,34.8-0.4,29.9,0.2,25c0.7-4.8,2.5-9.4,5.4-13.3s6.7-7,11.1-9S26-0.2,30.8,0.1S40.3,2,44.4,4.6
		s7.4,6.2,9.8,10.5S57.8,24.2,57.8,29.1z"/>
	<path class="accent" d="M47.7,51c-5.2,4.5-11.9,7-18.8,7s-13.6-2.5-18.8-7l18.8-22.4L47.7,51z"/>
	<path class="primary" d="M106.8,20.5h-0.2l-2.4,4.8l-6.6,12l-6.6-12l-2.4-4.8h-0.2v22.9h-4.6V13.5h5.8l8,15.2h0.3l8-15.2h5.5v29.9h-4.6
		L106.8,20.5z"/>
	<path class="primary" d="M132.2,43.4c-0.5,0-1,0-1.5-0.2s-0.9-0.5-1.3-0.8c-0.7-0.7-1.1-1.7-1.2-2.7H128c-0.4,1.3-1.2,2.4-2.4,3.2
		c-1.3,0.7-2.7,1.1-4.2,1.1c-2.3,0-4.1-0.6-5.3-1.8c-1.2-1.2-1.9-2.8-1.9-4.8c0-2.2,0.8-3.9,2.4-5c1.6-1.1,4-1.7,7.1-1.7h4v-1.9
		c0-0.6,0-1.2-0.2-1.7s-0.5-1-0.9-1.5c-0.7-0.7-1.9-1.1-3.5-1.1c-1.1-0.1-2.3,0.2-3.2,0.9c-0.8,0.6-1.6,1.3-2.1,2.2l-2.8-2.5
		c0.8-1.3,1.8-2.4,3.1-3.1c1.3-0.8,3.1-1.2,5.3-1.2c2.9,0,5.1,0.7,6.6,2s2.3,3.3,2.3,5.8v11.2h2.4v3.8L132.2,43.4z M122.8,40.4
		c1.3,0.1,2.5-0.3,3.6-1c0.4-0.3,0.8-0.7,1.1-1.1c0.2-0.5,0.4-1,0.4-1.5v-3.2H124c-3.2,0-4.8,1-4.8,3v0.8c0,0.4,0,0.9,0.2,1.3
		c0.2,0.4,0.4,0.7,0.8,1C120.8,40.2,121.8,40.4,122.8,40.4z"/>
	<path class="primary" d="M137.7,43.4V21.1h4.7v4.3h0.2c0.3-1.2,1-2.2,2-3c1-0.9,2.4-1.3,4.2-1.3h1.2v4.5h-1.8c-1.9,0-3.3,0.3-4.3,0.9
		c-0.5,0.3-0.9,0.7-1.1,1.1s-0.4,1-0.4,1.5v14.2L137.7,43.4L137.7,43.4z"/>
	<path class="primary" d="M153.2,43.4V21.1h4.7v3.7h0.2c0.2-0.6,0.5-1.1,0.8-1.6s0.7-1,1.2-1.4s1.1-0.7,1.7-0.9c0.7-0.2,1.5-0.3,2.3-0.3
		c1.4,0,2.8,0.4,4,1.1c1.2,0.8,2.1,2,2.6,3.4h0.1c0.4-1.3,1.2-2.4,2.3-3.2c1.3-0.9,2.8-1.4,4.4-1.3c2.2,0,4,0.7,5.2,2.2
		s1.8,3.6,1.8,6.4v14.1h-4.7V29.8c0-1.7-0.3-3-1-3.9c-0.6-0.9-1.7-1.3-3.1-1.3c-0.6,0-1.2,0.1-1.7,0.2s-1,0.4-1.4,0.7
		c-0.4,0.3-0.8,0.8-1,1.3s-0.4,1.1-0.3,1.6v14.9h-4.7V29.8c0-3.5-1.4-5.2-4.1-5.2c-0.6,0-1.1,0.1-1.7,0.2c-0.5,0.1-1,0.4-1.5,0.7
		c-0.4,0.3-0.8,0.7-1,1.2c-0.3,0.5-0.4,1.1-0.4,1.7v14.9L153.2,43.4L153.2,43.4z"/>
	<path class="primary" d="M205.7,43.4c-0.5,0-1,0-1.5-0.2s-0.9-0.5-1.3-0.8c-0.7-0.7-1.1-1.7-1.2-2.7h-0.2c-0.4,1.3-1.2,2.4-2.4,3.2
		c-1.3,0.7-2.7,1.1-4.2,1.1c-2.3,0-4.1-0.6-5.3-1.8s-1.9-2.8-1.9-4.8c0-2.2,0.8-3.9,2.4-5c1.6-1.1,4-1.7,7.1-1.7h4v-1.9
		c0-0.6,0-1.2-0.2-1.7s-0.5-1-0.9-1.5c-0.7-0.7-1.9-1.1-3.5-1.1c-1.1-0.1-2.3,0.2-3.2,0.9c-0.8,0.6-1.6,1.3-2.1,2.2l-2.8-2.5
		c0.8-1.3,1.8-2.4,3.1-3.1c1.3-0.8,3.1-1.2,5.3-1.2c2.9,0,5.1,0.7,6.6,2s2.3,3.3,2.3,5.8v11.2h2.4v3.8L205.7,43.4z M196.2,40.4
		c1.3,0.1,2.5-0.3,3.6-1c0.4-0.3,0.8-0.7,1.1-1.1c0.2-0.5,0.4-1,0.4-1.5v-3.2h-3.9c-3.2,0-4.8,1-4.8,3v0.8c0,0.4,0,0.9,0.2,1.3
		c0.2,0.4,0.4,0.7,0.8,1C194.3,40.1,195.3,40.4,196.2,40.4z"/>
	<path class="primary" d="M215.9,43.4c-1.6,0-2.8-0.4-3.6-1.2c-0.4-0.5-0.7-1-0.9-1.6s-0.3-1.2-0.2-1.8V11.7h4.7v27.9h3.1v3.8H215.9z"/>
	<path class="primary" d="M238.9,43.4c-0.5,0-1,0-1.5-0.2s-0.9-0.5-1.3-0.8c-0.7-0.7-1.1-1.7-1.2-2.7h-0.3c-0.4,1.3-1.2,2.4-2.3,3.2
		c-1.3,0.7-2.7,1.1-4.2,1.1c-2.3,0-4.1-0.6-5.3-1.8s-1.9-2.8-1.9-4.8c0-2.2,0.8-3.9,2.4-5c1.6-1.1,4-1.7,7.1-1.7h4v-1.9
		c0-0.6,0-1.2-0.2-1.7s-0.5-1-0.9-1.5c-0.7-0.7-1.9-1.1-3.5-1.1c-1.1-0.1-2.3,0.2-3.2,0.9c-0.8,0.6-1.5,1.3-2.1,2.2l-2.8-2.5
		c0.8-1.3,1.8-2.4,3.1-3.1c1.3-0.8,3.1-1.2,5.3-1.2c2.9,0,5.1,0.7,6.6,2s2.3,3.3,2.3,5.8v11.2h2.4v3.8L238.9,43.4z M229.4,40.4
		c1.3,0.1,2.5-0.3,3.6-1c0.4-0.3,0.8-0.7,1.1-1.1c0.2-0.5,0.4-1,0.4-1.5v-3.2h-3.9c-3.2,0-4.8,1-4.8,3v0.8c0,0.4,0,0.9,0.2,1.3
		c0.2,0.4,0.4,0.7,0.8,1C227.5,40.2,228.4,40.4,229.4,40.4z"/>
	<path class="primary" d="M258.4,39.7h-0.2c-0.4,1.3-1.3,2.3-2.4,3.1c-1.2,0.8-2.5,1.1-3.9,1.1c-2.8,0-5-1-6.6-3.1
		c-1.5-2-2.3-4.9-2.3-8.6c0-3.7,0.8-6.6,2.3-8.6s3.7-3.1,6.6-3.1c1.4,0,2.7,0.3,3.9,1.1c1.1,0.7,2,1.8,2.4,3.1h0.2v-13h4.7v31.7
		h-4.7V39.7z M253.3,39.9c1.3,0,2.5-0.3,3.6-1.1c0.5-0.3,0.8-0.7,1.1-1.2c0.3-0.5,0.4-1,0.4-1.6v-7.6c0-0.5-0.1-1.1-0.4-1.6
		s-0.6-0.9-1.1-1.2c-1.1-0.7-2.3-1.1-3.6-1.1c-0.7,0-1.4,0.1-2.1,0.4s-1.3,0.7-1.8,1.2c-1,1.1-1.5,2.6-1.4,4.1v3.9
		c-0.1,1.5,0.4,3,1.4,4.1c0.5,0.5,1.1,0.9,1.8,1.2C251.9,39.8,252.6,39.9,253.3,39.9z"/>
	<path class="primary" d="M276.8,43.9c-1.5,0-2.9-0.3-4.3-0.8c-1.2-0.5-2.3-1.3-3.2-2.3c-0.9-1.1-1.6-2.3-2-3.7
		c-0.5-1.6-0.7-3.2-0.7-4.8c0-1.6,0.2-3.3,0.7-4.8c0.4-1.4,1.1-2.6,2-3.7c0.9-1,2-1.8,3.2-2.3c1.4-0.6,2.8-0.8,4.3-0.8
		s3,0.3,4.3,0.9c1.2,0.5,2.3,1.4,3.1,2.4c0.8,1,1.5,2.2,1.9,3.5c0.4,1.4,0.6,2.9,0.6,4.3v1.8h-15.3v0.7c-0.1,1.5,0.5,3,1.5,4.2
		c1,1.1,2.5,1.6,4.3,1.6c1.2,0,2.4-0.3,3.5-0.9c1-0.6,1.8-1.4,2.4-2.4l2.7,2.7c-0.9,1.4-2.1,2.6-3.6,3.3
		C280.5,43.5,278.7,44,276.8,43.9z M276.8,24.2c-0.8,0-1.5,0.1-2.2,0.4c-0.6,0.3-1.2,0.7-1.7,1.2s-0.9,1.2-1.1,1.8
		c-0.3,0.8-0.4,1.6-0.4,2.4v0.3h10.4v-0.4c0.1-1.5-0.4-3-1.3-4.1c-0.4-0.5-1-0.9-1.6-1.2C278.1,24.3,277.4,24.2,276.8,24.2z"/>
	<path class="primary" d="M322.9,26.5h2.1v5.4l-4,4.1h-1.5l-2.8-4.2v-5.3h2.1v4.9l1.7,2.5l2.5-2.6v-4.8H322.9z M328.7,23.6h5.2l1.5,2.2
		v1.7l-6.3,6.5v0.1h6.3V36h-8.3v-2.7l6.4-6.6l-0.8-1.3h-3.1l-1.4,1.4l-1.1-1.6L328.7,23.6z"/>
	<path class="primary" d="M337.1,43.9h-22c-7.7,0-13.9-6.3-13.9-13.9s6.3-13.9,13.9-13.9h22c7.7,0,13.9,6.3,13.9,13.9
		S344.8,43.9,337.1,43.9z M315.1,17.5c-6.9,0-12.5,5.6-12.5,12.5s5.6,12.5,12.5,12.5h22c6.9,0,12.5-5.6,12.5-12.5
		s-5.6-12.5-12.5-12.5H315.1z"/>
	<path class="tagline" d="M85.3,54h1.4v1.5h0.1c0.2-0.6,0.6-1,1-1.3c0.5-0.3,1-0.4,1.6-0.4s1.1,0.1,1.5,0.3c0.5,0.2,0.8,0.5,1.1,0.9
		c0.3,0.4,0.6,0.9,0.7,1.5c0.2,0.6,0.3,1.2,0.3,1.9s-0.1,1.4-0.3,1.9c-0.2,0.6-0.4,1.1-0.7,1.5c-0.3,0.4-0.7,0.7-1.1,0.9
		c-0.5,0.2-1,0.3-1.5,0.3c-1.2,0-2.1-0.6-2.6-1.7h-0.1v4.9h-1.4V54z M89,61.9c0.8,0,1.4-0.2,1.9-0.7s0.7-1.1,0.7-1.9v-1.5
		c0-0.8-0.2-1.4-0.7-1.9s-1.1-0.7-1.9-0.7c-0.3,0-0.6,0-0.9,0.1s-0.5,0.2-0.7,0.3c-0.2,0.2-0.4,0.3-0.5,0.6
		c-0.1,0.2-0.2,0.4-0.2,0.7v3.3c0,0.3,0.1,0.5,0.2,0.8c0.1,0.2,0.3,0.4,0.5,0.6c0.2,0.2,0.5,0.3,0.7,0.3
		C88.4,61.8,88.7,61.9,89,61.9z M98.8,63.1c-0.6,0-1.2-0.1-1.6-0.3c-0.5-0.2-0.9-0.5-1.3-0.9c-0.3-0.4-0.6-0.9-0.8-1.5
		c-0.2-0.6-0.3-1.2-0.3-1.9s0.1-1.3,0.3-1.9c0.2-0.6,0.5-1.1,0.8-1.5c0.4-0.4,0.8-0.7,1.3-1c0.5-0.2,1-0.3,1.6-0.3s1.1,0.1,1.6,0.3
		s0.9,0.5,1.3,1c0.4,0.4,0.6,0.9,0.8,1.5s0.3,1.2,0.3,1.9s-0.1,1.4-0.3,1.9c-0.2,0.6-0.5,1.1-0.8,1.5c-0.4,0.4-0.8,0.7-1.3,0.9
		C99.9,63,99.4,63.1,98.8,63.1z M98.8,61.9c0.8,0,1.4-0.2,1.8-0.7c0.5-0.5,0.7-1.2,0.7-2.1v-1.3c0-0.9-0.2-1.7-0.7-2.1
		S99.5,55,98.8,55c-0.8,0-1.4,0.2-1.8,0.7c-0.5,0.5-0.7,1.2-0.7,2.1v1.3c0,0.9,0.2,1.7,0.7,2.1C97.4,61.7,98.1,61.9,98.8,61.9z
		 M104.1,54h1.4l1,3.9l1,3.9l0,0l1.1-3.9l1.1-3.9h1.2l1.2,3.9l1.1,3.9l0,0l0.9-3.9l1-3.9h1.3l-2.4,9h-1.7l-1.3-4.3l-0.8-2.7l0,0
		l-0.8,2.7l-1.2,4.3h-1.7L104.1,54z M121.7,63.1c-0.6,0-1.2-0.1-1.7-0.3s-0.9-0.5-1.3-0.9c-0.3-0.4-0.6-0.9-0.8-1.5
		c-0.2-0.6-0.3-1.2-0.3-1.9s0.1-1.3,0.3-1.9c0.2-0.6,0.5-1.1,0.8-1.5c0.4-0.4,0.8-0.7,1.3-1c0.5-0.2,1.1-0.3,1.7-0.3
		s1.1,0.1,1.6,0.3s0.9,0.5,1.2,0.9c0.3,0.4,0.6,0.8,0.8,1.4c0.2,0.5,0.3,1.1,0.3,1.8v0.7h-6.4v0.4c0,0.4,0.1,0.7,0.2,1.1
		c0.1,0.3,0.3,0.6,0.5,0.9c0.2,0.2,0.5,0.4,0.8,0.6c0.3,0.1,0.7,0.2,1.1,0.2c0.6,0,1.1-0.1,1.5-0.4c0.4-0.3,0.8-0.6,1-1.1l1,0.7
		c-0.3,0.6-0.7,1.1-1.4,1.5C123.2,62.9,122.5,63.1,121.7,63.1z M121.7,54.9c-0.4,0-0.7,0.1-1,0.2c-0.3,0.1-0.6,0.3-0.8,0.6
		c-0.2,0.2-0.4,0.5-0.5,0.9c-0.1,0.3-0.2,0.7-0.2,1.1v0.1h5v-0.2c0-0.8-0.2-1.4-0.7-1.9C123,55.2,122.4,54.9,121.7,54.9z
		 M127.8,62.9v-9h1.4v1.6h0.1c0.2-0.4,0.5-0.8,0.9-1.1s1-0.5,1.7-0.5h0.5v1.4h-0.8c-0.8,0-1.3,0.1-1.8,0.4c-0.4,0.3-0.6,0.6-0.6,1.1
		v6.1H127.8z M137.5,63.1c-0.6,0-1.2-0.1-1.7-0.3s-0.9-0.5-1.3-0.9c-0.3-0.4-0.6-0.9-0.8-1.5s-0.3-1.2-0.3-1.9s0.1-1.3,0.3-1.9
		c0.2-0.6,0.5-1.1,0.8-1.5c0.4-0.4,0.8-0.7,1.3-1c0.5-0.2,1.1-0.3,1.7-0.3c0.6,0,1.1,0.1,1.6,0.3s0.9,0.5,1.2,0.9s0.6,0.8,0.8,1.4
		c0.2,0.5,0.3,1.1,0.3,1.8v0.7H135v0.4c0,0.4,0.1,0.7,0.2,1.1c0.1,0.3,0.3,0.6,0.5,0.9c0.2,0.2,0.5,0.4,0.8,0.6
		c0.3,0.1,0.7,0.2,1.1,0.2c0.6,0,1.1-0.1,1.5-0.4c0.4-0.3,0.8-0.6,1-1.1l1,0.7c-0.3,0.6-0.7,1.1-1.4,1.5
		C139.1,62.9,138.3,63.1,137.5,63.1z M137.5,54.9c-0.4,0-0.7,0.1-1,0.2c-0.3,0.1-0.6,0.3-0.8,0.6c-0.2,0.2-0.4,0.5-0.5,0.9
		c-0.1,0.3-0.2,0.7-0.2,1.1v0.1h4.9v-0.2c0-0.8-0.2-1.4-0.7-1.9C138.8,55.2,138.2,54.9,137.5,54.9z M149.4,61.5L149.4,61.5
		c-0.6,1.1-1.5,1.7-2.7,1.7c-0.6,0-1.1-0.1-1.5-0.3c-0.5-0.2-0.8-0.5-1.2-0.9c-0.3-0.4-0.6-0.9-0.7-1.5c-0.2-0.6-0.2-1.2-0.2-1.9
		s0.1-1.4,0.2-1.9c0.2-0.6,0.4-1.1,0.7-1.5s0.7-0.7,1.2-0.9s1-0.3,1.5-0.3c0.6,0,1.2,0.1,1.6,0.4c0.5,0.3,0.8,0.7,1,1.3h0.1v-5.3
		h1.4v12.9h-1.4L149.4,61.5L149.4,61.5z M147.1,61.9c0.3,0,0.6,0,0.9-0.1c0.3-0.1,0.5-0.2,0.7-0.3c0.2-0.2,0.4-0.4,0.5-0.6
		c0.1-0.2,0.2-0.5,0.2-0.8v-3.3c0-0.2-0.1-0.5-0.2-0.7c-0.1-0.2-0.3-0.4-0.5-0.6c-0.2-0.2-0.5-0.3-0.7-0.3c-0.3-0.1-0.6-0.1-0.9-0.1
		c-0.8,0-1.4,0.2-1.9,0.7s-0.7,1.1-0.7,1.9v1.5c0,0.8,0.2,1.4,0.7,1.9C145.7,61.6,146.3,61.9,147.1,61.9z M157.8,50.1h1.4v5.3h0.1
		c0.2-0.6,0.6-1,1-1.3c0.5-0.3,1-0.4,1.6-0.4s1.1,0.1,1.5,0.3c0.5,0.2,0.8,0.5,1.1,0.9s0.6,0.9,0.7,1.5c0.2,0.6,0.3,1.2,0.3,1.9
		s-0.1,1.4-0.3,1.9c-0.2,0.6-0.4,1.1-0.7,1.5s-0.7,0.7-1.1,0.9c-0.5,0.2-1,0.3-1.5,0.3c-1.2,0-2.1-0.6-2.6-1.7h-0.1v1.5h-1.4V50.1z
		 M161.5,61.9c0.8,0,1.4-0.2,1.9-0.7s0.7-1.1,0.7-1.9v-1.5c0-0.8-0.2-1.4-0.7-1.9s-1.1-0.7-1.9-0.7c-0.3,0-0.6,0-0.9,0.1
		c-0.3,0.1-0.5,0.2-0.7,0.3c-0.2,0.2-0.4,0.3-0.5,0.6c-0.1,0.2-0.2,0.4-0.2,0.7v3.3c0,0.3,0.1,0.5,0.2,0.8c0.1,0.2,0.3,0.4,0.5,0.6
		c0.2,0.2,0.5,0.3,0.7,0.3C160.9,61.8,161.2,61.9,161.5,61.9z M173.3,54h1.4l-4,11c-0.1,0.3-0.2,0.5-0.3,0.7s-0.2,0.3-0.4,0.4
		c-0.1,0.1-0.3,0.2-0.6,0.2c-0.2,0-0.5,0.1-0.8,0.1h-0.7v-1.2h1.4l0.7-1.9l-3.4-9.3h1.4l2.2,6.1l0.4,1.5h0.1l0.5-1.5L173.3,54z
		 M183.9,57l-1.7,1.9v4h-1.5V50.8h1.5v6.4h0.1l1.7-2.1l3.7-4.3h1.8L185,56l4.8,6.9H188L183.9,57z M197.8,62.9
		c-0.5,0-0.9-0.1-1.1-0.4c-0.2-0.3-0.4-0.6-0.4-1h-0.1c-0.2,0.6-0.5,1-1,1.3s-1,0.4-1.6,0.4c-0.9,0-1.7-0.2-2.2-0.7s-0.8-1.1-0.8-2
		c0-0.8,0.3-1.5,0.9-1.9c0.6-0.5,1.6-0.7,2.9-0.7h1.8V57c0-0.6-0.2-1.1-0.5-1.5c-0.3-0.3-0.9-0.5-1.6-0.5c-0.5,0-1,0.1-1.4,0.4
		c-0.4,0.2-0.7,0.6-0.9,1l-0.8-0.8c0.2-0.5,0.6-0.9,1.2-1.2c0.5-0.3,1.2-0.5,2-0.5c1.1,0,1.9,0.3,2.5,0.8s0.9,1.3,0.9,2.2v4.9h1V63
		L197.8,62.9L197.8,62.9z M193.9,61.9c0.3,0,0.7,0,1-0.1s0.5-0.2,0.7-0.3c0.2-0.2,0.4-0.3,0.5-0.5s0.2-0.4,0.2-0.6v-1.5h-1.8
		c-0.8,0-1.4,0.1-1.8,0.3c-0.4,0.2-0.5,0.6-0.5,1v0.4c0,0.4,0.2,0.8,0.5,1C192.9,61.8,193.3,61.9,193.9,61.9z M206.3,61.5
		L206.3,61.5c-0.6,1.1-1.5,1.7-2.7,1.7c-0.6,0-1.1-0.1-1.5-0.3c-0.5-0.2-0.8-0.5-1.2-0.9c-0.3-0.4-0.6-0.9-0.7-1.5
		c-0.2-0.6-0.2-1.2-0.2-1.9s0.1-1.4,0.2-1.9c0.2-0.6,0.4-1.1,0.7-1.5s0.7-0.7,1.2-0.9s1-0.3,1.5-0.3c0.6,0,1.2,0.1,1.6,0.4
		c0.5,0.3,0.8,0.7,1,1.3h0.1v-5.3h1.4v12.9h-1.4L206.3,61.5L206.3,61.5z M204,61.9c0.3,0,0.6,0,0.9-0.1c0.3-0.1,0.5-0.2,0.7-0.3
		c0.2-0.2,0.4-0.4,0.5-0.6c0.1-0.2,0.2-0.5,0.2-0.8v-3.3c0-0.2-0.1-0.5-0.2-0.7c-0.1-0.2-0.3-0.4-0.5-0.6c-0.2-0.2-0.5-0.3-0.7-0.3
		c-0.3-0.1-0.6-0.1-0.9-0.1c-0.8,0-1.4,0.2-1.9,0.7s-0.7,1.1-0.7,1.9v1.5c0,0.8,0.2,1.4,0.7,1.9C202.6,61.6,203.2,61.9,204,61.9z
		 M214.1,63.1c-0.6,0-1.2-0.1-1.7-0.3s-0.9-0.5-1.3-0.9c-0.3-0.4-0.6-0.9-0.8-1.5s-0.3-1.2-0.3-1.9s0.1-1.3,0.3-1.9
		c0.2-0.6,0.5-1.1,0.8-1.5c0.4-0.4,0.8-0.7,1.3-1c0.5-0.2,1.1-0.3,1.7-0.3c0.6,0,1.1,0.1,1.6,0.3s0.9,0.5,1.2,0.9s0.6,0.8,0.8,1.4
		c0.2,0.5,0.3,1.1,0.3,1.8v0.7h-6.4v0.4c0,0.4,0.1,0.7,0.2,1.1c0.1,0.3,0.3,0.6,0.5,0.9c0.2,0.2,0.5,0.4,0.8,0.6
		c0.3,0.1,0.7,0.2,1.1,0.2c0.6,0,1.1-0.1,1.5-0.4c0.4-0.3,0.8-0.6,1-1.1l1,0.7c-0.3,0.6-0.7,1.1-1.4,1.5
		C215.6,62.9,214.9,63.1,214.1,63.1z M214.1,54.9c-0.4,0-0.7,0.1-1,0.2c-0.3,0.1-0.6,0.3-0.8,0.6c-0.2,0.2-0.4,0.5-0.5,0.9
		c-0.1,0.3-0.2,0.7-0.2,1.1v0.1h4.9v-0.2c0-0.8-0.2-1.4-0.7-1.9C215.3,55.2,214.8,54.9,214.1,54.9z M220.2,62.9v-9h1.4v1.5h0.1
		c0.2-0.5,0.5-0.9,0.9-1.2s0.9-0.5,1.6-0.5c0.9,0,1.7,0.3,2.2,0.9c0.5,0.6,0.8,1.4,0.8,2.5v5.7h-1.4v-5.5c0-1.6-0.7-2.4-2-2.4
		c-0.3,0-0.6,0-0.8,0.1c-0.3,0.1-0.5,0.2-0.7,0.3s-0.4,0.3-0.5,0.5s-0.2,0.5-0.2,0.7v6.2h-1.4V62.9z M236.6,62.9
		c-0.5,0-0.9-0.1-1.1-0.4c-0.2-0.3-0.4-0.6-0.4-1H235c-0.2,0.6-0.5,1-1,1.3s-1,0.4-1.6,0.4c-1,0-1.7-0.2-2.2-0.7s-0.8-1.1-0.8-2
		c0-0.8,0.3-1.5,0.9-1.9c0.6-0.5,1.6-0.7,2.9-0.7h1.8V57c0-0.6-0.2-1.1-0.5-1.5c-0.3-0.3-0.9-0.5-1.6-0.5c-0.5,0-1,0.1-1.4,0.4
		c-0.4,0.2-0.7,0.6-0.9,1l-0.8-0.8c0.2-0.5,0.6-0.9,1.2-1.2c0.5-0.3,1.2-0.5,2-0.5c1.1,0,1.9,0.3,2.5,0.8s0.9,1.3,0.9,2.2v4.9h1V63
		L236.6,62.9L236.6,62.9z M232.6,61.9c0.3,0,0.7,0,1-0.1s0.5-0.2,0.7-0.3c0.2-0.2,0.4-0.3,0.5-0.5s0.2-0.4,0.2-0.6v-1.5h-1.8
		c-0.8,0-1.4,0.1-1.8,0.3c-0.4,0.2-0.5,0.6-0.5,1v0.4c0,0.4,0.2,0.8,0.5,1C231.6,61.8,232.1,61.9,232.6,61.9z"/>
</g>
</svg>
